<svg version="1.1" id="Layer_1" xmlns="http://www.w3.org/2000/svg" xmlns:xlink="http://www.w3.org/1999/xlink" x="0px" y="0px"
	 width="100%" viewBox="0 0 1600 1600" enable-background="new 0 0 1600 1600" xml:space="preserve">
<path fill="#000000" opacity="1.000000" stroke="none" 
	d="
M949.000000,1601.000000 
	C632.666748,1601.000000 316.833527,1601.000000 1.000212,1601.000000 
	C1.000141,1067.666870 1.000141,534.333862 1.000071,1.000570 
	C534.332947,1.000380 1067.665894,1.000380 1600.999023,1.000190 
	C1600.999390,534.332764 1600.999390,1067.665527 1600.999756,1600.999146 
	C1383.833374,1601.000000 1166.666626,1601.000000 949.000000,1601.000000 
M128.698044,832.502380 
	C128.651337,871.256775 133.182037,909.503418 141.612061,947.297058 
	C152.331497,995.354675 169.278366,1041.114258 192.066666,1084.777588 
	C213.631226,1126.096069 239.738007,1164.316040 269.804138,1199.834717 
	C296.071808,1230.866211 324.885925,1259.396729 355.619751,1286.027466 
	C384.478058,1311.033081 415.458466,1333.057861 448.161896,1352.669434 
	C483.985413,1374.151978 521.422607,1392.442505 560.617798,1406.870605 
	C590.010986,1417.690674 619.650574,1427.886841 649.420105,1437.628418 
	C694.526794,1452.388794 740.725342,1462.471069 788.031494,1466.743774 
	C836.021973,1471.078003 883.812988,1469.062012 931.261475,1460.321655 
	C989.593201,1449.576660 1044.564819,1429.570557 1096.565430,1401.063721 
	C1142.452393,1375.908447 1184.421387,1345.353760 1222.833862,1309.965210 
	C1269.103394,1267.338257 1311.005371,1220.807617 1346.615112,1168.779541 
	C1368.724609,1136.476196 1388.111084,1102.630249 1404.745117,1067.211426 
	C1423.491699,1027.294678 1438.584106,986.051758 1449.689331,943.342896 
	C1459.428101,905.889038 1465.136597,867.778442 1467.620117,829.249939 
	C1471.350708,771.374634 1468.102417,713.867310 1457.104492,656.804138 
	C1450.088989,620.404663 1440.602661,584.768433 1427.275635,550.176575 
	C1411.590698,509.464569 1391.976929,470.722443 1368.820923,433.751892 
	C1338.496948,385.336914 1302.913330,341.161560 1262.074219,301.232727 
	C1237.915283,277.612305 1212.145996,255.911621 1184.743164,236.098785 
	C1154.089600,213.935471 1121.773682,194.613510 1087.658325,178.355453 
	C1053.426758,162.041992 1017.892273,149.244812 981.057800,140.095245 
	C953.903748,133.350266 926.395935,128.548737 898.536194,126.366058 
	C852.389343,122.750664 806.462646,124.486542 760.797119,132.906906 
	C723.776794,139.733154 687.746155,149.918411 652.667297,163.350479 
	C603.256531,182.270416 555.803223,205.524796 509.445923,230.897781 
	C444.462494,266.465515 385.223663,309.933624 332.436462,362.084320 
	C300.257172,393.875702 271.256012,428.297241 245.776764,465.639252 
	C221.655396,500.991089 201.106796,538.348633 184.337250,577.757385 
	C168.188705,615.706909 154.380402,654.399597 144.732239,694.598083 
	C133.920334,739.645081 128.418991,785.208801 128.698044,832.502380 
z"/>
<path fill="#849BFF" opacity="1.000000" stroke="none" 
	d="
M128.691956,832.002075 
	C128.418991,785.208801 133.920334,739.645081 144.732239,694.598083 
	C154.380402,654.399597 168.188705,615.706909 184.337250,577.757385 
	C201.106796,538.348633 221.655396,500.991089 245.776764,465.639252 
	C271.256012,428.297241 300.257172,393.875702 332.436462,362.084320 
	C385.223663,309.933624 444.462494,266.465515 509.445923,230.897781 
	C555.803223,205.524796 603.256531,182.270416 652.667297,163.350479 
	C687.746155,149.918411 723.776794,139.733154 760.797119,132.906906 
	C806.462646,124.486542 852.389343,122.750664 898.536194,126.366058 
	C926.395935,128.548737 953.903748,133.350266 981.057800,140.095245 
	C1017.892273,149.244812 1053.426758,162.041992 1087.658325,178.355453 
	C1121.773682,194.613510 1154.089600,213.935471 1184.743164,236.098785 
	C1212.145996,255.911621 1237.915283,277.612305 1262.074219,301.232727 
	C1302.913330,341.161560 1338.496948,385.336914 1368.820923,433.751892 
	C1391.976929,470.722443 1411.590698,509.464569 1427.275635,550.176575 
	C1440.602661,584.768433 1450.088989,620.404663 1457.104492,656.804138 
	C1468.102417,713.867310 1471.350708,771.374634 1467.620117,829.249939 
	C1465.136597,867.778442 1459.428101,905.889038 1449.689331,943.342896 
	C1438.584106,986.051758 1423.491699,1027.294678 1404.745117,1067.211426 
	C1388.111084,1102.630249 1368.724609,1136.476196 1346.615112,1168.779541 
	C1311.005371,1220.807617 1269.103394,1267.338257 1222.833862,1309.965210 
	C1184.421387,1345.353760 1142.452393,1375.908447 1096.565430,1401.063721 
	C1044.564819,1429.570557 989.593201,1449.576660 931.261475,1460.321655 
	C883.812988,1469.062012 836.021973,1471.078003 788.031494,1466.743774 
	C740.725342,1462.471069 694.526794,1452.388794 649.420105,1437.628418 
	C619.650574,1427.886841 590.010986,1417.690674 560.617798,1406.870605 
	C521.422607,1392.442505 483.985413,1374.151978 448.161896,1352.669434 
	C415.458466,1333.057861 384.478058,1311.033081 355.619751,1286.027466 
	C324.885925,1259.396729 296.071808,1230.866211 269.804138,1199.834717 
	C239.738007,1164.316040 213.631226,1126.096069 192.066666,1084.777588 
	C169.278366,1041.114258 152.331497,995.354675 141.612061,947.297058 
	C133.182037,909.503418 128.651337,871.256775 128.691956,832.002075 
M348.586243,1070.914307 
	C356.527954,1082.429932 364.083130,1094.235962 372.478577,1105.410645 
	C408.053802,1152.762695 449.422668,1194.736328 493.855286,1233.671875 
	C531.101074,1266.309814 572.854370,1292.033813 618.834717,1310.578613 
	C654.990540,1325.161011 692.489929,1334.666138 731.279297,1339.090576 
	C768.205750,1343.302246 805.106323,1343.035645 841.946899,1338.592407 
	C884.424377,1333.468994 925.640625,1323.001465 966.054321,1308.968628 
	C1022.413574,1289.398804 1075.477417,1263.489502 1124.170898,1228.862305 
	C1195.991821,1177.788330 1253.781860,1114.377441 1294.136841,1035.631470 
	C1339.598999,946.919739 1360.875610,853.204529 1353.239746,753.311401 
	C1350.157837,712.994629 1343.508667,673.416321 1332.448975,634.530640 
	C1313.886475,569.264343 1284.968018,509.154144 1243.532104,455.266693 
	C1203.864746,403.679169 1155.566284,362.227142 1097.781372,332.076141 
	C1045.385742,304.737091 989.327087,289.839325 930.754089,284.201385 
	C890.264160,280.304077 849.636719,279.601776 808.957947,280.737610 
	C771.411865,281.785950 734.241211,285.813782 697.407776,293.081329 
	C653.794250,301.686646 611.558899,314.701630 570.864746,332.652008 
	C517.226074,356.312317 468.803345,387.983185 425.031769,426.949066 
	C380.986176,466.158813 343.236176,510.396179 315.128326,562.497009 
	C274.912231,637.041626 257.318176,716.573975 261.708374,801.167358 
	C263.781769,841.119202 270.491638,880.188843 281.415985,918.590027 
	C296.676300,972.233093 318.191986,1023.140869 348.586243,1070.914307 
z"/>
<path fill="#FEFEFF" opacity="1.000000" stroke="none" 
	d="
M348.378723,1070.615234 
	C318.191986,1023.140869 296.676300,972.233093 281.415985,918.590027 
	C270.491638,880.188843 263.781769,841.119202 261.708374,801.167358 
	C257.318176,716.573975 274.912231,637.041626 315.128326,562.497009 
	C343.236176,510.396179 380.986176,466.158813 425.031769,426.949066 
	C468.803345,387.983185 517.226074,356.312317 570.864746,332.652008 
	C611.558899,314.701630 653.794250,301.686646 697.407776,293.081329 
	C734.241211,285.813782 771.411865,281.785950 808.957947,280.737610 
	C849.636719,279.601776 890.264160,280.304077 930.754089,284.201385 
	C989.327087,289.839325 1045.385742,304.737091 1097.781372,332.076141 
	C1155.566284,362.227142 1203.864746,403.679169 1243.532104,455.266693 
	C1284.968018,509.154144 1313.886475,569.264343 1332.448975,634.530640 
	C1343.508667,673.416321 1350.157837,712.994629 1353.239746,753.311401 
	C1360.875610,853.204529 1339.598999,946.919739 1294.136841,1035.631470 
	C1253.781860,1114.377441 1195.991821,1177.788330 1124.170898,1228.862305 
	C1075.477417,1263.489502 1022.413574,1289.398804 966.054321,1308.968628 
	C925.640625,1323.001465 884.424377,1333.468994 841.946899,1338.592407 
	C805.106323,1343.035645 768.205750,1343.302246 731.279297,1339.090576 
	C692.489929,1334.666138 654.990540,1325.161011 618.834717,1310.578613 
	C572.854370,1292.033813 531.101074,1266.309814 493.855286,1233.671875 
	C449.422668,1194.736328 408.053802,1152.762695 372.478577,1105.410645 
	C364.083130,1094.235962 356.527954,1082.429932 348.378723,1070.615234 
M969.224731,1264.815430 
	C1009.214600,1249.484741 1046.890625,1229.688721 1081.275635,1204.191284 
	C1134.778076,1164.517456 1182.413330,1118.592285 1223.008301,1065.708008 
	C1257.848145,1020.321228 1281.103027,969.343201 1293.578491,913.473816 
	C1305.576538,859.742371 1305.504028,805.718750 1296.768433,751.638428 
	C1291.376831,718.260010 1281.990479,685.885254 1270.677002,653.995667 
	C1251.286255,599.338867 1224.844971,548.543579 1189.648071,502.398071 
	C1159.586304,462.985107 1125.243652,427.880890 1084.727661,399.079529 
	C1041.966553,368.682098 995.520569,345.668304 945.565918,329.648895 
	C912.487915,319.041443 878.687378,311.889191 844.082336,309.159271 
	C815.653809,306.916656 787.181580,307.191315 758.720642,309.771240 
	C723.633545,312.951813 689.207947,319.485352 655.486938,329.528137 
	C615.136414,341.545258 576.780396,358.215820 540.727051,380.081879 
	C507.264679,400.376465 476.860748,424.443237 450.040588,452.987701 
	C400.300629,505.925385 367.986359,568.014587 352.564514,638.921753 
	C344.282776,676.999756 341.794006,715.658447 340.830475,754.523376 
	C339.203735,820.138733 344.954376,884.826538 362.885559,948.195557 
	C372.515503,982.227783 385.241211,1015.028320 401.379852,1046.477539 
	C424.494690,1091.521362 454.399933,1131.690918 489.414703,1168.145264 
	C515.582397,1195.388794 544.432312,1219.321899 576.560608,1239.285400 
	C601.095703,1254.530884 626.977783,1267.005249 654.122253,1276.720703 
	C682.549988,1286.895508 711.837158,1293.776733 741.877747,1297.156494 
	C766.255127,1299.899170 790.671448,1300.803345 815.213379,1299.262573 
	C841.193909,1297.631470 867.056396,1294.840942 892.179993,1288.197754 
	C917.859802,1281.407593 943.071838,1272.848389 969.224731,1264.815430 
z"/>
<path fill="#147E93" opacity="1.000000" stroke="none" 
	d="
M968.856689,1264.939453 
	C943.071838,1272.848389 917.859802,1281.407593 892.179993,1288.197754 
	C867.056396,1294.840942 841.193909,1297.631470 815.213379,1299.262573 
	C790.671448,1300.803345 766.255127,1299.899170 741.877747,1297.156494 
	C711.837158,1293.776733 682.549988,1286.895508 654.122253,1276.720703 
	C626.977783,1267.005249 601.095703,1254.530884 576.560608,1239.285400 
	C544.432312,1219.321899 515.582397,1195.388794 489.414703,1168.145264 
	C454.399933,1131.690918 424.494690,1091.521362 401.379852,1046.477539 
	C385.241211,1015.028320 372.515503,982.227783 362.885559,948.195557 
	C344.954376,884.826538 339.203735,820.138733 340.830475,754.523376 
	C341.794006,715.658447 344.282776,676.999756 352.564514,638.921753 
	C367.986359,568.014587 400.300629,505.925385 450.040588,452.987701 
	C476.860748,424.443237 507.264679,400.376465 540.727051,380.081879 
	C576.780396,358.215820 615.136414,341.545258 655.486938,329.528137 
	C689.207947,319.485352 723.633545,312.951813 758.720642,309.771240 
	C787.181580,307.191315 815.653809,306.916656 844.082336,309.159271 
	C878.687378,311.889191 912.487915,319.041443 945.565918,329.648895 
	C995.520569,345.668304 1041.966553,368.682098 1084.727661,399.079529 
	C1125.243652,427.880890 1159.586304,462.985107 1189.648071,502.398071 
	C1224.844971,548.543579 1251.286255,599.338867 1270.677002,653.995667 
	C1281.990479,685.885254 1291.376831,718.260010 1296.768433,751.638428 
	C1305.504028,805.718750 1305.576538,859.742371 1293.578491,913.473816 
	C1281.103027,969.343201 1257.848145,1020.321228 1223.008301,1065.708008 
	C1182.413330,1118.592285 1134.778076,1164.517456 1081.275635,1204.191284 
	C1046.890625,1229.688721 1009.214600,1249.484741 968.856689,1264.939453 
M1228.043945,771.393799 
	C1227.529175,746.665833 1223.612061,722.360413 1217.763306,698.439026 
	C1205.666504,648.962708 1185.658813,602.916992 1156.630981,560.885376 
	C1135.835571,530.774109 1110.640259,504.762177 1082.598389,481.512238 
	C1050.876831,455.211517 1015.921387,434.092712 977.966675,417.879639 
	C936.532898,400.180420 893.393188,389.776428 848.465088,387.206268 
	C824.988403,385.863312 801.531982,387.358093 778.320923,391.257660 
	C733.030151,398.866638 691.207703,415.406372 652.867371,440.713837 
	C634.209656,453.029297 616.813416,466.915741 600.253479,481.944702 
	C575.314819,504.577789 551.216370,528.042603 529.805908,554.053894 
	C501.306580,588.677429 477.562134,626.296509 459.620270,667.547668 
	C439.002747,714.950562 427.563293,764.473572 425.215485,815.978516 
	C424.102539,840.393982 424.474854,864.858215 427.757416,889.251526 
	C432.413025,923.848450 441.682556,957.006470 456.340302,988.651062 
	C480.720520,1041.285400 516.849548,1084.332764 563.124939,1119.055908 
	C587.468201,1137.322144 613.677429,1152.409424 641.260925,1165.205566 
	C662.153442,1174.897827 683.628906,1182.930664 705.805298,1189.178833 
	C742.882141,1199.625122 780.833801,1203.997437 819.162842,1204.720459 
	C841.929321,1205.150024 864.749207,1204.093384 887.512512,1203.016235 
	C918.798523,1201.535645 949.079895,1194.772461 978.598572,1184.337036 
	C1023.117065,1168.598877 1062.259766,1144.040283 1095.847168,1111.123901 
	C1110.767090,1096.502075 1124.642456,1080.520020 1137.126221,1063.765137 
	C1167.823730,1022.565002 1190.236450,976.807861 1206.267456,928.105225 
	C1222.893311,877.595032 1230.650879,825.649475 1228.043945,771.393799 
z"/>
<path fill="#05445E" opacity="1.000000" stroke="none" 
	d="
M1228.049316,771.873657 
	C1230.650879,825.649475 1222.893311,877.595032 1206.267456,928.105225 
	C1190.236450,976.807861 1167.823730,1022.565002 1137.126221,1063.765137 
	C1124.642456,1080.520020 1110.767090,1096.502075 1095.847168,1111.123901 
	C1062.259766,1144.040283 1023.117065,1168.598877 978.598572,1184.337036 
	C949.079895,1194.772461 918.798523,1201.535645 887.512512,1203.016235 
	C864.749207,1204.093384 841.929321,1205.150024 819.162842,1204.720459 
	C780.833801,1203.997437 742.882141,1199.625122 705.805298,1189.178833 
	C683.628906,1182.930664 662.153442,1174.897827 641.260925,1165.205566 
	C613.677429,1152.409424 587.468201,1137.322144 563.124939,1119.055908 
	C516.849548,1084.332764 480.720520,1041.285400 456.340302,988.651062 
	C441.682556,957.006470 432.413025,923.848450 427.757416,889.251526 
	C424.474854,864.858215 424.102539,840.393982 425.215485,815.978516 
	C427.563293,764.473572 439.002747,714.950562 459.620270,667.547668 
	C477.562134,626.296509 501.306580,588.677429 529.805908,554.053894 
	C551.216370,528.042603 575.314819,504.577789 600.253479,481.944702 
	C616.813416,466.915741 634.209656,453.029297 652.867371,440.713837 
	C691.207703,415.406372 733.030151,398.866638 778.320923,391.257660 
	C801.531982,387.358093 824.988403,385.863312 848.465088,387.206268 
	C893.393188,389.776428 936.532898,400.180420 977.966675,417.879639 
	C1015.921387,434.092712 1050.876831,455.211517 1082.598389,481.512238 
	C1110.640259,504.762177 1135.835571,530.774109 1156.630981,560.885376 
	C1185.658813,602.916992 1205.666504,648.962708 1217.763306,698.439026 
	C1223.612061,722.360413 1227.529175,746.665833 1228.049316,771.873657 
M959.594482,509.896729 
	C936.331848,500.479126 912.142639,494.574829 887.221985,492.235992 
	C850.680664,488.806519 814.134827,488.117126 777.561646,492.878113 
	C736.762878,498.189178 697.833435,509.249023 661.627258,528.963379 
	C604.759827,559.927856 559.803833,602.830322 531.094482,661.502319 
	C515.843689,692.669800 508.026062,725.870422 506.344025,760.475159 
	C505.117798,785.702637 507.556244,810.621887 512.981873,835.322083 
	C520.847412,871.130005 533.536682,904.998291 552.044800,936.687500 
	C568.967896,965.663086 590.935547,990.531799 614.189392,1014.467896 
	C646.619629,1047.849487 683.099304,1074.884644 727.784912,1089.745605 
	C767.304321,1102.888428 807.687195,1105.282959 848.580627,1099.138062 
	C888.520935,1093.136353 926.185181,1079.892212 961.865295,1061.017700 
	C1004.859619,1038.274170 1041.524780,1007.984436 1070.252319,968.601074 
	C1099.241211,928.859253 1117.765869,884.525940 1125.859497,836.010559 
	C1131.806030,800.365417 1130.765137,764.689331 1124.392212,729.166565 
	C1116.588379,685.668823 1101.250488,645.114258 1076.899292,608.081299 
	C1047.788574,563.810486 1009.362671,530.674744 959.594482,509.896729 
z"/>
<path fill="#FFFFFF" opacity="1.000000" stroke="none" 
	d="
M959.956421,510.027283 
	C1009.362671,530.674744 1047.788574,563.810486 1076.899292,608.081299 
	C1101.250488,645.114258 1116.588379,685.668823 1124.392212,729.166565 
	C1130.765137,764.689331 1131.806030,800.365417 1125.859497,836.010559 
	C1117.765869,884.525940 1099.241211,928.859253 1070.252319,968.601074 
	C1041.524780,1007.984436 1004.859619,1038.274170 961.865295,1061.017700 
	C926.185181,1079.892212 888.520935,1093.136353 848.580627,1099.138062 
	C807.687195,1105.282959 767.304321,1102.888428 727.784912,1089.745605 
	C683.099304,1074.884644 646.619629,1047.849487 614.189392,1014.467896 
	C590.935547,990.531799 568.967896,965.663086 552.044800,936.687500 
	C533.536682,904.998291 520.847412,871.130005 512.981873,835.322083 
	C507.556244,810.621887 505.117798,785.702637 506.344025,760.475159 
	C508.026062,725.870422 515.843689,692.669800 531.094482,661.502319 
	C559.803833,602.830322 604.759827,559.927856 661.627258,528.963379 
	C697.833435,509.249023 736.762878,498.189178 777.561646,492.878113 
	C814.134827,488.117126 850.680664,488.806519 887.221985,492.235992 
	C912.142639,494.574829 936.331848,500.479126 959.956421,510.027283 
M768.935913,636.404297 
	C751.643555,643.996704 736.903015,655.226379 723.043457,667.897217 
	C687.748352,700.164917 663.299072,738.291382 657.544189,786.797791 
	C654.157288,815.346008 657.142151,843.001099 669.453430,869.209167 
	C688.517395,909.792114 721.628235,934.440552 762.535889,949.705505 
	C792.509460,960.890259 823.741760,961.892212 855.195435,959.184143 
	C888.411316,956.324341 916.545532,942.513733 939.851562,918.768066 
	C956.094299,902.218994 967.686218,882.647461 976.171021,861.260132 
	C998.019104,806.188599 994.852600,752.804932 962.454895,702.728271 
	C938.100830,665.084534 902.773682,641.517212 859.592468,630.050964 
	C829.054260,621.941956 798.915344,623.662231 768.935913,636.404297 
z"/>
<path fill="#849BFF" opacity="1.000000" stroke="none" 
	d="
M769.278809,636.239014 
	C798.915344,623.662231 829.054260,621.941956 859.592468,630.050964 
	C902.773682,641.517212 938.100830,665.084534 962.454895,702.728271 
	C994.852600,752.804932 998.019104,806.188599 976.171021,861.260132 
	C967.686218,882.647461 956.094299,902.218994 939.851562,918.768066 
	C916.545532,942.513733 888.411316,956.324341 855.195435,959.184143 
	C823.741760,961.892212 792.509460,960.890259 762.535889,949.705505 
	C721.628235,934.440552 688.517395,909.792114 669.453430,869.209167 
	C657.142151,843.001099 654.157288,815.346008 657.544189,786.797791 
	C663.299072,738.291382 687.748352,700.164917 723.043457,667.897217 
	C736.903015,655.226379 751.643555,643.996704 769.278809,636.239014 
M789.396362,718.795776 
	C783.973328,722.617004 777.938110,725.808044 773.238220,730.373657 
	C756.862793,746.281433 749.709717,766.224609 749.156189,788.813293 
	C748.784485,803.979492 751.224182,818.375549 760.290649,830.992432 
	C786.395630,867.319885 850.407959,878.590393 884.889648,831.514893 
	C898.227905,813.305176 903.840881,793.090149 897.870239,770.679810 
	C893.844849,755.571045 883.998291,744.213745 872.575989,734.284363 
	C848.231323,713.121582 820.912415,706.352905 789.396362,718.795776 
z"/>
<path fill="#FFFFFF" opacity="1.000000" stroke="none" 
	d="
M789.740173,718.640320 
	C820.912415,706.352905 848.231323,713.121582 872.575989,734.284363 
	C883.998291,744.213745 893.844849,755.571045 897.870239,770.679810 
	C903.840881,793.090149 898.227905,813.305176 884.889648,831.514893 
	C850.407959,878.590393 786.395630,867.319885 760.290649,830.992432 
	C751.224182,818.375549 748.784485,803.979492 749.156189,788.813293 
	C749.709717,766.224609 756.862793,746.281433 773.238220,730.373657 
	C777.938110,725.808044 783.973328,722.617004 789.740173,718.640320 
z"/>
</svg>