<svg xmlns="http://www.w3.org/2000/svg" xmlns:xlink="http://www.w3.org/1999/xlink" width="500" zoomAndPan="magnify" viewBox="0 0 375 374.999991" height="500" preserveAspectRatio="xMidYMid meet" version="1.0"><defs><clipPath id="e22d9d53df"><path d="M 9.402344 14 L 368 14 L 368 363 L 9.402344 363 Z M 9.402344 14 " clip-rule="nonzero"/></clipPath><clipPath id="d2fc814afa"><path d="M 45 44 L 337 44 L 337 332 L 45 332 Z M 45 44 " clip-rule="nonzero"/></clipPath><clipPath id="9fbc1246cf"><path d="M -6.089844 250.707031 L 127.371094 -11.304688 L 393.476562 124.238281 L 260.015625 386.273438 Z M -6.089844 250.707031 " clip-rule="nonzero"/></clipPath><clipPath id="452ce9b1e8"><path d="M -6.089844 250.707031 L 127.371094 -11.304688 L 393.476562 124.238281 L 260.015625 386.273438 Z M -6.089844 250.707031 " clip-rule="nonzero"/></clipPath><clipPath id="a0a4526582"><path d="M 57 54 L 318 54 L 318 319 L 57 319 Z M 57 54 " clip-rule="nonzero"/></clipPath><clipPath id="37ab1bab24"><path d="M 244.429688 364.796875 L 6.984375 243.835938 L 130.003906 2.269531 L 367.476562 123.230469 Z M 244.429688 364.796875 " clip-rule="nonzero"/></clipPath><clipPath id="7f17b261c5"><path d="M 244.429688 364.796875 L 6.984375 243.835938 L 130.003906 2.269531 L 367.476562 123.230469 Z M 244.429688 364.796875 " clip-rule="nonzero"/></clipPath><clipPath id="8bac6d830a"><path d="M 79.699219 88 L 300.363281 88 L 300.363281 302 L 79.699219 302 Z M 79.699219 88 " clip-rule="nonzero"/></clipPath><clipPath id="ccc640e5a7"><path d="M 120.164062 328.59375 L 51.972656 118.851562 L 266.097656 49.246094 L 334.265625 258.992188 Z M 120.164062 328.59375 " clip-rule="nonzero"/></clipPath><clipPath id="01ff0d6ab2"><path d="M 120.164062 328.59375 L 51.972656 118.851562 L 266.097656 49.246094 L 334.265625 258.992188 Z M 120.164062 328.59375 " clip-rule="nonzero"/></clipPath><clipPath id="71d1d1bc9d"><path d="M 110 105 L 277 105 L 277 271 L 110 271 Z M 110 105 " clip-rule="nonzero"/></clipPath><clipPath id="e1c46c8e5b"><path d="M 80.585938 224.726562 L 157.753906 73.261719 L 309.246094 150.40625 L 232.074219 301.898438 Z M 80.585938 224.726562 " clip-rule="nonzero"/></clipPath><clipPath id="7f51961d6c"><path d="M 80.585938 224.726562 L 157.753906 73.261719 L 309.246094 150.40625 L 232.074219 301.898438 Z M 80.585938 224.726562 " clip-rule="nonzero"/></clipPath><clipPath id="5b3e418472"><path d="M 145 146 L 237 146 L 237 236 L 145 236 Z M 145 146 " clip-rule="nonzero"/></clipPath><clipPath id="1a08e4302c"><path d="M 162.761719 246.539062 L 134.339844 159.148438 L 221.730469 130.726562 L 250.152344 218.121094 Z M 162.761719 246.539062 " clip-rule="nonzero"/></clipPath><clipPath id="8ad29a41e3"><path d="M 162.761719 246.539062 L 134.339844 159.148438 L 221.730469 130.726562 L 250.152344 218.121094 Z M 162.761719 246.539062 " clip-rule="nonzero"/></clipPath><clipPath id="61aa6c1422"><path d="M 172 168 L 213 168 L 213 209 L 172 209 Z M 172 168 " clip-rule="nonzero"/></clipPath><clipPath id="c88f206ef2"><path d="M 167.261719 175.667969 L 206.574219 162.882812 L 219.363281 202.222656 L 180.046875 215.007812 Z M 167.261719 175.667969 " clip-rule="nonzero"/></clipPath><clipPath id="3f2add6f02"><path d="M 167.261719 175.667969 L 206.574219 162.882812 L 219.363281 202.222656 L 180.046875 215.007812 Z M 167.261719 175.667969 " clip-rule="nonzero"/></clipPath></defs><g clip-path="url(#e22d9d53df)"><path fill="#7388d9" d="M 9.640625 181.917969 C 9.523438 164.628906 9.882812 118.585938 42.300781 77.164062 C 66.988281 45.632812 97.609375 32.988281 111.570312 27.410156 C 176.335938 1.550781 235.691406 22.070312 254.007812 28.726562 C 275.652344 36.558594 307.953125 48.265625 333.738281 79.773438 C 376.886719 132.570312 375.6875 209.117188 349.421875 263.109375 C 345.136719 271.921875 327.464844 306.277344 287.984375 332.519531 C 280.777344 337.308594 243.855469 361.085938 189.984375 362.617188 C 171.882812 363.144531 121.171875 364.582031 77.59375 329.886719 C 49.867188 307.8125 37.488281 280.996094 29.25 263.109375 C 22.546875 248.574219 9.90625 220.417969 9.640625 181.917969 Z M 9.640625 181.917969 " fill-opacity="1" fill-rule="nonzero"/></g><g clip-path="url(#d2fc814afa)"><g clip-path="url(#9fbc1246cf)"><g clip-path="url(#452ce9b1e8)"><path fill="#ffffff" d="M 61.238281 118.945312 C 67.511719 106.425781 84.703125 73.308594 123.421875 55.351562 C 152.871094 41.707031 179.6875 43.859375 191.851562 44.984375 C 248.238281 50.207031 283.671875 86.910156 294.496094 98.476562 C 307.28125 112.097656 326.363281 132.472656 333.453125 164.726562 C 345.28125 218.742188 316.261719 273.546875 277.402344 302.855469 C 271.054688 307.621094 245.628906 325.914062 207.414062 330.292969 C 200.398438 331.109375 164.9375 334.652344 125.359375 315.878906 C 112.070312 309.582031 74.816406 291.9375 56.042969 250.800781 C 44.074219 224.632812 44.984375 200.710938 45.582031 184.765625 C 46.058594 171.8125 47.28125 146.816406 61.238281 118.945312 Z M 61.238281 118.945312 " fill-opacity="1" fill-rule="nonzero"/></g></g></g><g clip-path="url(#a0a4526582)"><g clip-path="url(#37ab1bab24)"><g clip-path="url(#7f17b261c5)"><path fill="#147e93" d="M 125.023438 303.742188 C 113.675781 298.066406 83.675781 282.480469 67.417969 247.378906 C 55.0625 220.632812 57.027344 196.308594 58.054688 185.269531 C 62.820312 134.101562 96.101562 101.945312 106.589844 92.105469 C 118.96875 80.515625 137.429688 63.183594 166.6875 56.742188 C 215.652344 45.992188 265.332031 72.28125 291.863281 107.527344 C 296.171875 113.273438 312.742188 136.351562 316.691406 171.023438 C 317.433594 177.367188 320.617188 209.546875 303.59375 245.464844 C 297.871094 257.53125 281.855469 291.339844 244.574219 308.386719 C 220.824219 319.257812 199.152344 318.441406 184.691406 317.914062 C 172.960938 317.484375 150.285156 316.40625 125.023438 303.742188 Z M 125.023438 303.742188 " fill-opacity="1" fill-rule="nonzero"/></g></g></g><g clip-path="url(#8bac6d830a)"><g clip-path="url(#ccc640e5a7)"><g clip-path="url(#01ff0d6ab2)"><path fill="#05445e" d="M 86.019531 222.980469 C 82.691406 213.019531 74.265625 186.347656 85.351562 156.273438 C 93.828125 133.382812 109.269531 120.261719 116.359375 114.398438 C 149.207031 87.199219 187.636719 87.820312 199.5625 88.203125 C 213.617188 88.632812 234.636719 89.28125 255.5625 102.617188 C 290.617188 124.933594 304.289062 169.394531 299.140625 205.574219 C 298.304688 211.464844 294.472656 234.664062 276.394531 257.289062 C 273.089844 261.457031 256.066406 282.167969 224.988281 293.253906 C 214.523438 296.988281 185.265625 307.429688 153.375 295.625 C 133.09375 288.105469 120.835938 274.960938 112.671875 266.175781 C 106.039062 259.0625 93.394531 245.175781 86.019531 222.980469 Z M 86.019531 222.980469 " fill-opacity="1" fill-rule="nonzero"/></g></g></g><g clip-path="url(#71d1d1bc9d)"><g clip-path="url(#e1c46c8e5b)"><g clip-path="url(#7f51961d6c)"><path fill="#ffffff" d="M 119.542969 148.5625 C 123.179688 141.332031 133.09375 122.179688 155.265625 111.691406 C 172.144531 103.71875 187.445312 104.867188 194.390625 105.464844 C 226.570312 108.269531 246.65625 129.289062 252.8125 135.921875 C 260.042969 143.726562 270.863281 155.386719 274.789062 173.96875 C 281.351562 205.046875 264.589844 236.746094 242.277344 253.746094 C 238.660156 256.523438 224.054688 267.15625 202.21875 269.835938 C 198.21875 270.316406 177.964844 272.496094 155.433594 261.816406 C 147.867188 258.25 126.652344 248.191406 116.09375 224.585938 C 109.367188 209.546875 109.964844 195.757812 110.371094 186.5625 C 110.683594 179.09375 111.472656 164.679688 119.542969 148.5625 Z M 119.542969 148.5625 " fill-opacity="1" fill-rule="nonzero"/></g></g></g><g clip-path="url(#5b3e418472)"><g clip-path="url(#1a08e4302c)"><g clip-path="url(#8ad29a41e3)"><path fill="#7388d9" d="M 148.511719 202.53125 C 147.148438 198.367188 143.628906 187.257812 148.082031 174.78125 C 151.484375 165.277344 157.78125 159.867188 160.652344 157.449219 C 174.035156 146.21875 189.742188 146.578125 194.628906 146.769531 C 200.375 146.984375 208.96875 147.296875 217.566406 152.898438 C 231.957031 162.261719 237.65625 180.792969 235.644531 195.828125 C 235.308594 198.269531 233.800781 207.917969 226.472656 217.28125 C 225.132812 218.980469 218.210938 227.578125 205.523438 232.101562 C 201.261719 233.609375 189.335938 237.898438 176.265625 232.894531 C 167.929688 229.730469 162.902344 224.226562 159.527344 220.5625 C 156.796875 217.59375 151.601562 211.773438 148.511719 202.53125 Z M 148.511719 202.53125 " fill-opacity="1" fill-rule="nonzero"/></g></g></g><g clip-path="url(#61aa6c1422)"><g clip-path="url(#c88f206ef2)"><g clip-path="url(#3f2add6f02)"><path fill="#ffffff" d="M 187.0625 169.25 C 188.929688 168.628906 193.910156 167.046875 199.535156 169.058594 C 203.824219 170.59375 206.242188 173.417969 207.34375 174.734375 C 212.394531 180.742188 212.226562 187.832031 212.15625 190.035156 C 212.058594 192.621094 211.914062 196.5 209.402344 200.355469 C 205.1875 206.84375 196.832031 209.402344 190.078125 208.496094 C 188.976562 208.351562 184.644531 207.65625 180.429688 204.351562 C 179.640625 203.753906 175.785156 200.640625 173.75 194.917969 C 173.054688 193.003906 171.140625 187.640625 173.390625 181.75 C 174.804688 177.992188 177.292969 175.714844 178.945312 174.207031 C 180.285156 172.988281 182.894531 170.640625 187.0625 169.25 Z M 187.0625 169.25 " fill-opacity="1" fill-rule="nonzero"/></g></g></g><path fill="#ffffff" d="M 339.636719 52.792969 L 422.097656 52.792969 L 484.925781 149.238281 L 547.753906 52.792969 L 630.308594 52.792969 L 519.308594 218.960938 L 519.308594 354.097656 L 450.640625 354.097656 L 450.640625 218.960938 Z M 339.636719 52.792969 " fill-opacity="1" fill-rule="nonzero"/></svg>