<svg xmlns="http://www.w3.org/2000/svg" xmlns:xlink="http://www.w3.org/1999/xlink" width="600" zoomAndPan="magnify" viewBox="0 0 450 449.999984" height="600" preserveAspectRatio="xMidYMid meet" version="1.0"><defs><clipPath id="5f2a35edf7"><path d="M 11 1 L 446 1 L 446 449 L 11 449 Z M 11 1 " clip-rule="nonzero"/></clipPath><clipPath id="507d50c8d9"><path d="M -87.257812 318.871094 L 136.886719 -90.25 L 537.457031 129.207031 L 313.3125 538.332031 Z M -87.257812 318.871094 " clip-rule="nonzero"/></clipPath><clipPath id="db6d4bb567"><path d="M -87.257812 318.871094 L 136.886719 -90.25 L 537.457031 129.207031 L 313.3125 538.332031 Z M -87.257812 318.871094 " clip-rule="nonzero"/></clipPath><clipPath id="1389a19df5"><path d="M -80.8125 314.355469 L 133.359375 -76.570312 L 525.8125 138.441406 L 311.636719 529.363281 Z M -80.8125 314.355469 " clip-rule="nonzero"/></clipPath><clipPath id="25c40640a1"><path d="M 77.320312 514.660156 L -62.980469 70.996094 L 371.984375 -66.554688 L 512.289062 377.113281 Z M 77.320312 514.660156 " clip-rule="nonzero"/></clipPath><clipPath id="a71da49ab3"><path d="M -219.433594 353.5625 L 95.132812 -220.605469 L 669.304688 93.960938 L 354.738281 668.128906 Z M -219.433594 353.5625 " clip-rule="nonzero"/></clipPath><clipPath id="262683ce71"><path d="M 77.394531 514.878906 L -63.304688 69.972656 L 371.667969 -67.574219 L 512.359375 377.328125 Z M 77.394531 514.878906 " clip-rule="nonzero"/></clipPath><clipPath id="eee5e773ed"><path d="M -1009.207031 -71.183594 L -279.679688 -1402.769531 L 1088.554688 -653.164062 L 359.027344 678.421875 Z M -1009.207031 -71.183594 " clip-rule="nonzero"/></clipPath><clipPath id="097192ae31"><path d="M 80.929688 526.0625 L -437.4375 -1113.136719 L -2.472656 -1250.6875 L 515.890625 388.515625 Z M 80.929688 526.0625 " clip-rule="nonzero"/></clipPath><clipPath id="d3fd43009b"><path d="M -206.632812 344.695312 L 97.058594 -209.625 L 651.378906 94.066406 L 347.6875 648.382812 Z M -206.632812 344.695312 " clip-rule="nonzero"/></clipPath><clipPath id="732adf6e2d"><path d="M 81.042969 501.222656 L -55.332031 69.957031 L 364.34375 -62.753906 L 500.722656 368.511719 Z M 81.042969 501.222656 " clip-rule="nonzero"/></clipPath><clipPath id="9600837dcc"><path d="M 50 40 L 402 40 L 402 402 L 50 402 Z M 50 40 " clip-rule="nonzero"/></clipPath><clipPath id="20c5d35956"><path d="M -87.257812 318.871094 L 136.886719 -90.25 L 537.457031 129.207031 L 313.3125 538.332031 Z M -87.257812 318.871094 " clip-rule="nonzero"/></clipPath><clipPath id="d9f3dc213e"><path d="M -87.257812 318.871094 L 136.886719 -90.25 L 537.457031 129.207031 L 313.3125 538.332031 Z M -87.257812 318.871094 " clip-rule="nonzero"/></clipPath><clipPath id="c922267664"><path d="M -15.613281 300.441406 L 160.074219 -20.238281 L 471.59375 150.429688 L 295.902344 471.109375 Z M -15.613281 300.441406 " clip-rule="nonzero"/></clipPath><clipPath id="e47ab37180"><path d="M 77.320312 514.660156 L -62.980469 70.996094 L 371.984375 -66.554688 L 512.289062 377.113281 Z M 77.320312 514.660156 " clip-rule="nonzero"/></clipPath><clipPath id="669dae587d"><path d="M -219.433594 353.5625 L 95.132812 -220.605469 L 669.304688 93.960938 L 354.738281 668.128906 Z M -219.433594 353.5625 " clip-rule="nonzero"/></clipPath><clipPath id="c6673cee88"><path d="M 77.394531 514.878906 L -63.304688 69.972656 L 371.667969 -67.574219 L 512.359375 377.328125 Z M 77.394531 514.878906 " clip-rule="nonzero"/></clipPath><clipPath id="0b04f3c624"><path d="M -1009.207031 -71.183594 L -279.679688 -1402.769531 L 1088.554688 -653.164062 L 359.027344 678.421875 Z M -1009.207031 -71.183594 " clip-rule="nonzero"/></clipPath><clipPath id="3c09a0be69"><path d="M 80.929688 526.0625 L -437.4375 -1113.136719 L -2.472656 -1250.6875 L 515.890625 388.515625 Z M 80.929688 526.0625 " clip-rule="nonzero"/></clipPath><clipPath id="966228a8cd"><path d="M -127.941406 324.273438 L 121.371094 -130.789062 L 574.902344 117.6875 L 325.59375 572.746094 Z M -127.941406 324.273438 " clip-rule="nonzero"/></clipPath><clipPath id="78d039a1bd"><path d="M 104.753906 450.105469 L -5.324219 102.007812 L 342.648438 -8.027344 L 452.726562 340.058594 Z M 104.753906 450.105469 " clip-rule="nonzero"/></clipPath><clipPath id="04a8e4fff8"><path d="M -97.066406 311.40625 L 129.65625 -102.421875 L 540.429688 122.625 L 313.710938 536.457031 Z M -97.066406 311.40625 " clip-rule="nonzero"/></clipPath><clipPath id="4d29cdf2f1"><path d="M 371.832031 429.429688 L 12.015625 369.523438 L 72.765625 3.992188 L 432.609375 63.886719 Z M 371.832031 429.429688 " clip-rule="nonzero"/></clipPath><clipPath id="ca9a9e0814"><path d="M -261.539062 354.320312 L 79.796875 -268.714844 L 704.359375 73.457031 L 363.023438 696.492188 Z M -261.539062 354.320312 " clip-rule="nonzero"/></clipPath><clipPath id="29c281fea2"><path d="M 57.851562 528.75 L -93.5 50.125 L 384.960938 -101.179688 L 536.316406 377.449219 Z M 57.851562 528.75 " clip-rule="nonzero"/></clipPath><clipPath id="90efa97ecb"><path d="M -97.066406 311.40625 L 129.65625 -102.421875 L 540.429688 122.625 L 313.710938 536.457031 Z M -97.066406 311.40625 " clip-rule="nonzero"/></clipPath><clipPath id="8fdbe59492"><path d="M 371.832031 429.429688 L 12.015625 369.523438 L 72.765625 3.992188 L 432.609375 63.886719 Z M 371.832031 429.429688 " clip-rule="nonzero"/></clipPath><clipPath id="fc8928dec1"><path d="M 59 63 L 388 63 L 388 382 L 59 382 Z M 59 63 " clip-rule="nonzero"/></clipPath><clipPath id="d32f6166a9"><path d="M -87.257812 318.871094 L 136.886719 -90.25 L 537.457031 129.207031 L 313.3125 538.332031 Z M -87.257812 318.871094 " clip-rule="nonzero"/></clipPath><clipPath id="ac64c7ccf9"><path d="M -87.257812 318.871094 L 136.886719 -90.25 L 537.457031 129.207031 L 313.3125 538.332031 Z M -87.257812 318.871094 " clip-rule="nonzero"/></clipPath><clipPath id="555c4f7a44"><path d="M 6.097656 282.554688 L 160.871094 0.0507812 L 451.011719 159.007812 L 296.238281 441.511719 Z M 6.097656 282.554688 " clip-rule="nonzero"/></clipPath><clipPath id="e8d6b7da55"><path d="M 77.320312 514.660156 L -62.980469 70.996094 L 371.984375 -66.554688 L 512.289062 377.113281 Z M 77.320312 514.660156 " clip-rule="nonzero"/></clipPath><clipPath id="03a62d4a59"><path d="M -219.433594 353.5625 L 95.132812 -220.605469 L 669.304688 93.960938 L 354.738281 668.128906 Z M -219.433594 353.5625 " clip-rule="nonzero"/></clipPath><clipPath id="e9c8b728cf"><path d="M 77.394531 514.878906 L -63.304688 69.972656 L 371.667969 -67.574219 L 512.359375 377.328125 Z M 77.394531 514.878906 " clip-rule="nonzero"/></clipPath><clipPath id="3a53644b23"><path d="M -1009.207031 -71.183594 L -279.679688 -1402.769531 L 1088.554688 -653.164062 L 359.027344 678.421875 Z M -1009.207031 -71.183594 " clip-rule="nonzero"/></clipPath><clipPath id="f376972e5f"><path d="M 80.929688 526.0625 L -437.4375 -1113.136719 L -2.472656 -1250.6875 L 515.890625 388.515625 Z M 80.929688 526.0625 " clip-rule="nonzero"/></clipPath><clipPath id="75186fccd4"><path d="M -94.160156 316.96875 L 130.890625 -93.804688 L 543.191406 132.082031 L 318.144531 542.855469 Z M -94.160156 316.96875 " clip-rule="nonzero"/></clipPath><clipPath id="91ba2b96ff"><path d="M 114.664062 431.011719 L 16.050781 119.179688 L 335.03125 18.308594 L 433.640625 330.148438 Z M 114.664062 431.011719 " clip-rule="nonzero"/></clipPath><clipPath id="6338e789f2"><path d="M -69.683594 308.539062 L 134.449219 -64.058594 L 510.101562 141.746094 L 305.96875 514.347656 Z M -69.683594 308.539062 " clip-rule="nonzero"/></clipPath><clipPath id="6b44991dd6"><path d="M 413.042969 90.363281 L 358.820312 416.53125 L 27.089844 361.335938 L 81.308594 35.132812 Z M 413.042969 90.363281 " clip-rule="nonzero"/></clipPath><clipPath id="7a3960eb79"><path d="M -217.90625 354.398438 L 90.804688 -209.082031 L 652.757812 98.792969 L 344.046875 662.273438 Z M -217.90625 354.398438 " clip-rule="nonzero"/></clipPath><clipPath id="517582811f"><path d="M 67.765625 509.660156 L -67.539062 81.796875 L 367.429688 -55.75 L 502.730469 372.109375 Z M 67.765625 509.660156 " clip-rule="nonzero"/></clipPath><clipPath id="6cc81d7c20"><path d="M -69.683594 308.539062 L 134.449219 -64.058594 L 510.101562 141.746094 L 305.96875 514.347656 Z M -69.683594 308.539062 " clip-rule="nonzero"/></clipPath><clipPath id="da716c0170"><path d="M 413.042969 90.363281 L 358.820312 416.53125 L 27.089844 361.335938 L 81.308594 35.132812 Z M 413.042969 90.363281 " clip-rule="nonzero"/></clipPath><clipPath id="df8b1e75a9"><path d="M 95 83 L 366 83 L 366 357 L 95 357 Z M 95 83 " clip-rule="nonzero"/></clipPath><clipPath id="c519aec46c"><path d="M -87.257812 318.871094 L 136.886719 -90.25 L 537.457031 129.207031 L 313.3125 538.332031 Z M -87.257812 318.871094 " clip-rule="nonzero"/></clipPath><clipPath id="4fde6d7dae"><path d="M -87.257812 318.871094 L 136.886719 -90.25 L 537.457031 129.207031 L 313.3125 538.332031 Z M -87.257812 318.871094 " clip-rule="nonzero"/></clipPath><clipPath id="ef43787834"><path d="M 42.390625 270.671875 L 172.066406 33.980469 L 411.8125 165.328125 L 282.136719 402.019531 Z M 42.390625 270.671875 " clip-rule="nonzero"/></clipPath><clipPath id="de13048b80"><path d="M 77.320312 514.660156 L -62.980469 70.996094 L 371.984375 -66.554688 L 512.289062 377.113281 Z M 77.320312 514.660156 " clip-rule="nonzero"/></clipPath><clipPath id="6378b77b66"><path d="M -219.433594 353.5625 L 95.132812 -220.605469 L 669.304688 93.960938 L 354.738281 668.128906 Z M -219.433594 353.5625 " clip-rule="nonzero"/></clipPath><clipPath id="bfe0833d98"><path d="M 77.394531 514.878906 L -63.304688 69.972656 L 371.667969 -67.574219 L 512.359375 377.328125 Z M 77.394531 514.878906 " clip-rule="nonzero"/></clipPath><clipPath id="3ea4fb346c"><path d="M -1009.207031 -71.183594 L -279.679688 -1402.769531 L 1088.554688 -653.164062 L 359.027344 678.421875 Z M -1009.207031 -71.183594 " clip-rule="nonzero"/></clipPath><clipPath id="618642a6d0"><path d="M 80.929688 526.0625 L -437.4375 -1113.136719 L -2.472656 -1250.6875 L 515.890625 388.515625 Z M 80.929688 526.0625 " clip-rule="nonzero"/></clipPath><clipPath id="a1afdb8051"><path d="M -32.558594 295.128906 L 154.007812 -45.402344 L 494.539062 141.160156 L 307.972656 481.691406 Z M -32.558594 295.128906 " clip-rule="nonzero"/></clipPath><clipPath id="cbd82bcf62"><path d="M 141.738281 390.539062 L 59.175781 129.472656 L 320.164062 46.945312 L 402.714844 308.015625 Z M 141.738281 390.539062 " clip-rule="nonzero"/></clipPath><clipPath id="3cc683d052"><path d="M -27.683594 289.855469 L 149.679688 -33.878906 L 476.464844 145.15625 L 299.105469 468.890625 Z M -27.683594 289.855469 " clip-rule="nonzero"/></clipPath><clipPath id="cab44ceb8a"><path d="M 416.722656 250.921875 L 194.164062 410.050781 L 31.726562 182.746094 L 254.292969 23.648438 Z M 416.722656 250.921875 " clip-rule="nonzero"/></clipPath><clipPath id="24decbe803"><path d="M -117.503906 316.09375 L 125.953125 -128.277344 L 570.324219 115.175781 L 326.867188 559.546875 Z M -117.503906 316.09375 " clip-rule="nonzero"/></clipPath><clipPath id="6e5b1e8cb2"><path d="M 109.707031 440.558594 L 1.925781 99.714844 L 342.648438 -8.027344 L 450.429688 332.808594 Z M 109.707031 440.558594 " clip-rule="nonzero"/></clipPath><clipPath id="f45bbb3fe5"><path d="M -27.683594 289.855469 L 149.679688 -33.878906 L 476.464844 145.15625 L 299.105469 468.890625 Z M -27.683594 289.855469 " clip-rule="nonzero"/></clipPath><clipPath id="c35290dde0"><path d="M 416.722656 250.921875 L 194.164062 410.050781 L 31.726562 182.746094 L 254.292969 23.648438 Z M 416.722656 250.921875 " clip-rule="nonzero"/></clipPath><clipPath id="460a1b5e48"><path d="M 122 114 L 326 114 L 326 321 L 122 321 Z M 122 114 " clip-rule="nonzero"/></clipPath><clipPath id="6d82faf6ee"><path d="M -87.257812 318.871094 L 136.886719 -90.25 L 537.457031 129.207031 L 313.3125 538.332031 Z M -87.257812 318.871094 " clip-rule="nonzero"/></clipPath><clipPath id="2318ee86ad"><path d="M -87.257812 318.871094 L 136.886719 -90.25 L 537.457031 129.207031 L 313.3125 538.332031 Z M -87.257812 318.871094 " clip-rule="nonzero"/></clipPath><clipPath id="6344cc8656"><path d="M 84.789062 262.132812 L 185.183594 78.886719 L 365.375 177.609375 L 264.980469 360.855469 Z M 84.789062 262.132812 " clip-rule="nonzero"/></clipPath><clipPath id="f1cada08a9"><path d="M 77.320312 514.660156 L -62.980469 70.996094 L 371.984375 -66.554688 L 512.289062 377.113281 Z M 77.320312 514.660156 " clip-rule="nonzero"/></clipPath><clipPath id="e3ab68bc0f"><path d="M -219.433594 353.5625 L 95.132812 -220.605469 L 669.304688 93.960938 L 354.738281 668.128906 Z M -219.433594 353.5625 " clip-rule="nonzero"/></clipPath><clipPath id="07802751e2"><path d="M 77.394531 514.878906 L -63.304688 69.972656 L 371.667969 -67.574219 L 512.359375 377.328125 Z M 77.394531 514.878906 " clip-rule="nonzero"/></clipPath><clipPath id="1d4c3ce247"><path d="M -1009.207031 -71.183594 L -279.679688 -1402.769531 L 1088.554688 -653.164062 L 359.027344 678.421875 Z M -1009.207031 -71.183594 " clip-rule="nonzero"/></clipPath><clipPath id="d6c0324315"><path d="M 80.929688 526.0625 L -437.4375 -1113.136719 L -2.472656 -1250.6875 L 515.890625 388.515625 Z M 80.929688 526.0625 " clip-rule="nonzero"/></clipPath><clipPath id="e8a3dab83d"><path d="M 14.027344 278.957031 L 162.105469 8.667969 L 432.394531 156.75 L 284.3125 427.035156 Z M 14.027344 278.957031 " clip-rule="nonzero"/></clipPath><clipPath id="2b915be084"><path d="M 154.316406 354.660156 L 87.808594 144.355469 L 290.789062 80.160156 L 357.296875 290.46875 Z M 154.316406 354.660156 " clip-rule="nonzero"/></clipPath><clipPath id="7ffb0a8f50"><path d="M 37.808594 268.160156 L 167.484375 31.46875 L 405.703125 161.980469 L 276.027344 398.671875 Z M 37.808594 268.160156 " clip-rule="nonzero"/></clipPath><clipPath id="b969daef82"><path d="M 308.679688 336.59375 L 100.667969 301.949219 L 135.234375 93.859375 L 343.277344 128.507812 Z M 308.679688 336.59375 " clip-rule="nonzero"/></clipPath><clipPath id="6622c1875f"><path d="M -56.738281 295.777344 L 140.703125 -64.605469 L 499.558594 132 L 302.117188 492.382812 Z M -56.738281 295.777344 " clip-rule="nonzero"/></clipPath><clipPath id="00028f34aa"><path d="M 127.242188 395.132812 L 40.09375 119.554688 L 315.574219 32.441406 L 402.714844 308.015625 Z M 127.242188 395.132812 " clip-rule="nonzero"/></clipPath><clipPath id="5b157f3ada"><path d="M 37.808594 268.160156 L 167.484375 31.46875 L 405.703125 161.980469 L 276.027344 398.671875 Z M 37.808594 268.160156 " clip-rule="nonzero"/></clipPath><clipPath id="6c40a0551a"><path d="M 308.679688 336.59375 L 100.667969 301.949219 L 135.234375 93.859375 L 343.277344 128.507812 Z M 308.679688 336.59375 " clip-rule="nonzero"/></clipPath><clipPath id="0ad1b13d09"><path d="M 170 163 L 283 163 L 283 276 L 170 276 Z M 170 163 " clip-rule="nonzero"/></clipPath><clipPath id="5b94dc599d"><path d="M -87.257812 318.871094 L 136.886719 -90.25 L 537.457031 129.207031 L 313.3125 538.332031 Z M -87.257812 318.871094 " clip-rule="nonzero"/></clipPath><clipPath id="cbb53840c3"><path d="M -87.257812 318.871094 L 136.886719 -90.25 L 537.457031 129.207031 L 313.3125 538.332031 Z M -87.257812 318.871094 " clip-rule="nonzero"/></clipPath><clipPath id="eeede60894"><path d="M 147.917969 241.128906 L 202.296875 141.871094 L 301.554688 196.25 L 247.175781 295.507812 Z M 147.917969 241.128906 " clip-rule="nonzero"/></clipPath><clipPath id="c8d273dd1e"><path d="M 77.320312 514.660156 L -62.980469 70.996094 L 371.984375 -66.554688 L 512.289062 377.113281 Z M 77.320312 514.660156 " clip-rule="nonzero"/></clipPath><clipPath id="ddc872b33b"><path d="M -219.433594 353.5625 L 95.132812 -220.605469 L 669.304688 93.960938 L 354.738281 668.128906 Z M -219.433594 353.5625 " clip-rule="nonzero"/></clipPath><clipPath id="d80a8a404f"><path d="M 77.394531 514.878906 L -63.304688 69.972656 L 371.667969 -67.574219 L 512.359375 377.328125 Z M 77.394531 514.878906 " clip-rule="nonzero"/></clipPath><clipPath id="ed8233744c"><path d="M -1009.207031 -71.183594 L -279.679688 -1402.769531 L 1088.554688 -653.164062 L 359.027344 678.421875 Z M -1009.207031 -71.183594 " clip-rule="nonzero"/></clipPath><clipPath id="8e3179952b"><path d="M 80.929688 526.0625 L -437.4375 -1113.136719 L -2.472656 -1250.6875 L 515.890625 388.515625 Z M 80.929688 526.0625 " clip-rule="nonzero"/></clipPath><clipPath id="929d266551"><path d="M 113.152344 253.847656 L 194.304688 105.726562 L 342.429688 186.875 L 261.277344 335 Z M 113.152344 253.847656 " clip-rule="nonzero"/></clipPath><clipPath id="8464d4b604"><path d="M 191.300781 295.09375 L 154.609375 179.066406 L 263.351562 144.679688 L 300.042969 260.714844 Z M 191.300781 295.09375 " clip-rule="nonzero"/></clipPath><clipPath id="42ca312249"><path d="M 120.390625 247.886719 L 194.011719 113.507812 L 328.390625 187.128906 L 254.769531 321.507812 Z M 120.390625 247.886719 " clip-rule="nonzero"/></clipPath><clipPath id="110ba4a49b"><path d="M 303.734375 231.21875 L 211.003906 297.53125 L 144.699219 204.761719 L 237.425781 138.453125 Z M 303.734375 231.21875 " clip-rule="nonzero"/></clipPath><clipPath id="3a124f33ee"><path d="M 76.171875 263.367188 L 179.910156 74.015625 L 370.792969 178.589844 L 267.050781 367.945312 Z M 76.171875 263.367188 " clip-rule="nonzero"/></clipPath><clipPath id="256e2c9110"><path d="M 174.136719 316.480469 L 128.273438 171.441406 L 273.261719 125.589844 L 319.128906 270.628906 Z M 174.136719 316.480469 " clip-rule="nonzero"/></clipPath><clipPath id="a2542dbcef"><path d="M 120.390625 247.886719 L 194.011719 113.507812 L 328.390625 187.128906 L 254.769531 321.507812 Z M 120.390625 247.886719 " clip-rule="nonzero"/></clipPath><clipPath id="816f015988"><path d="M 303.734375 231.21875 L 211.003906 297.53125 L 144.699219 204.761719 L 237.425781 138.453125 Z M 303.734375 231.21875 " clip-rule="nonzero"/></clipPath><clipPath id="256ce6c564"><path d="M 198 192 L 249 192 L 249 243 L 198 243 Z M 198 192 " clip-rule="nonzero"/></clipPath><clipPath id="82529b5c60"><path d="M -87.257812 318.871094 L 136.886719 -90.25 L 537.457031 129.207031 L 313.3125 538.332031 Z M -87.257812 318.871094 " clip-rule="nonzero"/></clipPath><clipPath id="1e9c8fb1a1"><path d="M -87.257812 318.871094 L 136.886719 -90.25 L 537.457031 129.207031 L 313.3125 538.332031 Z M -87.257812 318.871094 " clip-rule="nonzero"/></clipPath><clipPath id="339887cc73"><path d="M 188.9375 227.863281 L 214.035156 182.050781 L 259.847656 207.152344 L 234.746094 252.960938 Z M 188.9375 227.863281 " clip-rule="nonzero"/></clipPath><clipPath id="eea7837091"><path d="M 77.320312 514.660156 L -62.980469 70.996094 L 371.984375 -66.554688 L 512.289062 377.113281 Z M 77.320312 514.660156 " clip-rule="nonzero"/></clipPath><clipPath id="23eb1025a6"><path d="M -219.433594 353.5625 L 95.132812 -220.605469 L 669.304688 93.960938 L 354.738281 668.128906 Z M -219.433594 353.5625 " clip-rule="nonzero"/></clipPath><clipPath id="b010d9f053"><path d="M 77.394531 514.878906 L -63.304688 69.972656 L 371.667969 -67.574219 L 512.359375 377.328125 Z M 77.394531 514.878906 " clip-rule="nonzero"/></clipPath><clipPath id="b4c4a06b31"><path d="M -1009.207031 -71.183594 L -279.679688 -1402.769531 L 1088.554688 -653.164062 L 359.027344 678.421875 Z M -1009.207031 -71.183594 " clip-rule="nonzero"/></clipPath><clipPath id="8b9cd92d20"><path d="M 80.929688 526.0625 L -437.4375 -1113.136719 L -2.472656 -1250.6875 L 515.890625 388.515625 Z M 80.929688 526.0625 " clip-rule="nonzero"/></clipPath><clipPath id="69bf8de315"><path d="M 166.136719 233.242188 L 205.457031 161.46875 L 278.753906 201.628906 L 239.433594 273.398438 Z M 166.136719 233.242188 " clip-rule="nonzero"/></clipPath><clipPath id="c46a0158bf"><path d="M 201.582031 251.960938 L 185.53125 201.195312 L 243.519531 182.859375 L 259.578125 233.621094 Z M 201.582031 251.960938 " clip-rule="nonzero"/></clipPath><clipPath id="86929f3a37"><path d="M 175.589844 230.480469 L 209.890625 167.871094 L 272.5 202.171875 L 238.199219 264.78125 Z M 175.589844 230.480469 " clip-rule="nonzero"/></clipPath><clipPath id="195f561374"><path d="M 218.226562 252.398438 L 188.398438 210.671875 L 230.140625 180.824219 L 259.972656 222.5625 Z M 218.226562 252.398438 " clip-rule="nonzero"/></clipPath><clipPath id="6f9b15e043"><path d="M 151.953125 237.382812 L 201.316406 147.289062 L 292.9375 197.484375 L 243.578125 287.582031 Z M 151.953125 237.382812 " clip-rule="nonzero"/></clipPath><clipPath id="128bffbe66"><path d="M 196.625 261.507812 L 175.984375 196.238281 L 248.480469 173.3125 L 269.117188 238.582031 Z M 196.625 261.507812 " clip-rule="nonzero"/></clipPath><clipPath id="ca352962ed"><path d="M 175.589844 230.480469 L 209.890625 167.871094 L 272.5 202.171875 L 238.199219 264.78125 Z M 175.589844 230.480469 " clip-rule="nonzero"/></clipPath><clipPath id="ce7c385b72"><path d="M 218.226562 252.398438 L 188.398438 210.671875 L 230.140625 180.824219 L 259.972656 222.5625 Z M 218.226562 252.398438 " clip-rule="nonzero"/></clipPath><clipPath id="b84ef68cdd"><path d="M 29 0 L 256 0 L 256 95 L 29 95 Z M 29 0 " clip-rule="nonzero"/></clipPath><clipPath id="dc0b9bcb0b"><path d="M -87.257812 318.871094 L 136.886719 -90.25 L 537.457031 129.207031 L 313.3125 538.332031 Z M -87.257812 318.871094 " clip-rule="nonzero"/></clipPath><clipPath id="622cdfb151"><path d="M -87.257812 318.871094 L 136.886719 -90.25 L 537.457031 129.207031 L 313.3125 538.332031 Z M -87.257812 318.871094 " clip-rule="nonzero"/></clipPath><clipPath id="a1131d4c0c"><path d="M 29.074219 106.53125 L 136.472656 -89.5 L 255.582031 -24.242188 L 148.183594 171.785156 Z M 29.074219 106.53125 " clip-rule="nonzero"/></clipPath><clipPath id="7eae73aad3"><path d="M 77.320312 514.660156 L -62.980469 70.996094 L 371.984375 -66.554688 L 512.289062 377.113281 Z M 77.320312 514.660156 " clip-rule="nonzero"/></clipPath><clipPath id="bfbfd65ba3"><path d="M -219.433594 353.5625 L 95.132812 -220.605469 L 669.304688 93.960938 L 354.738281 668.128906 Z M -219.433594 353.5625 " clip-rule="nonzero"/></clipPath><clipPath id="0274eb791a"><path d="M 77.394531 514.878906 L -63.304688 69.972656 L 371.667969 -67.574219 L 512.359375 377.328125 Z M 77.394531 514.878906 " clip-rule="nonzero"/></clipPath><clipPath id="3127e80d60"><path d="M -1009.207031 -71.183594 L -279.679688 -1402.769531 L 1088.554688 -653.164062 L 359.027344 678.421875 Z M -1009.207031 -71.183594 " clip-rule="nonzero"/></clipPath><clipPath id="8307c40402"><path d="M 80.929688 526.0625 L -437.4375 -1113.136719 L -2.472656 -1250.6875 L 515.890625 388.515625 Z M 80.929688 526.0625 " clip-rule="nonzero"/></clipPath><clipPath id="e4649437cb"><path d="M 33 25 L 417 25 L 417 420 L 33 420 Z M 33 25 " clip-rule="nonzero"/></clipPath><clipPath id="ccb6151675"><path d="M -61.941406 192.253906 L 263.484375 -61.230469 L 511.898438 257.6875 L 186.472656 511.171875 Z M -61.941406 192.253906 " clip-rule="nonzero"/></clipPath><clipPath id="c975d44eba"><path d="M -61.941406 192.253906 L 263.484375 -61.230469 L 511.898438 257.6875 L 186.472656 511.171875 Z M -61.941406 192.253906 " clip-rule="nonzero"/></clipPath><clipPath id="f3d85c286e"><path d="M -55.121094 190.847656 L 256.152344 -51.613281 L 499.558594 260.878906 L 188.285156 503.335938 Z M -55.121094 190.847656 " clip-rule="nonzero"/></clipPath><clipPath id="ea15afdea5"><path d="M 3.050781 409.125 L 44.808594 -0.636719 L 446.535156 40.300781 L 404.78125 450.066406 Z M 3.050781 409.125 " clip-rule="nonzero"/></clipPath><clipPath id="821d9c861a"><path d="M -181.523438 174.042969 L 275.660156 -182.070312 L 631.773438 275.109375 L 174.589844 631.222656 Z M -181.523438 174.042969 " clip-rule="nonzero"/></clipPath><clipPath id="0b5fc6fc67"><path d="M 3.03125 409.332031 L 44.902344 -1.582031 L 446.636719 39.359375 L 404.761719 450.265625 Z M 3.03125 409.332031 " clip-rule="nonzero"/></clipPath><clipPath id="bbb9b59da5"><path d="M -674.148438 -448.363281 L 386.125 -1274.242188 L 1234.734375 -184.785156 L 174.460938 641.09375 Z M -674.148438 -448.363281 " clip-rule="nonzero"/></clipPath><clipPath id="1f231410be"><path d="M 1.980469 419.660156 L 156.253906 -1094.28125 L 557.984375 -1053.34375 L 403.703125 460.597656 Z M 1.980469 419.660156 " clip-rule="nonzero"/></clipPath><clipPath id="aff4dc1522"><path d="M -168.007812 171.328125 L 273.367188 -172.472656 L 617.167969 268.902344 L 175.792969 612.703125 Z M -168.007812 171.328125 " clip-rule="nonzero"/></clipPath><clipPath id="a7cd2c2cd2"><path d="M 10.792969 399.515625 L 51.386719 1.207031 L 438.992188 40.703125 L 398.402344 439.015625 Z M 10.792969 399.515625 " clip-rule="nonzero"/></clipPath><clipPath id="24993d6769"><path d="M 66 61 L 384 61 L 384 383 L 66 383 Z M 66 61 " clip-rule="nonzero"/></clipPath><clipPath id="7c2130dae7"><path d="M -61.941406 192.253906 L 263.484375 -61.230469 L 511.898438 257.6875 L 186.472656 511.171875 Z M -61.941406 192.253906 " clip-rule="nonzero"/></clipPath><clipPath id="1ed7316f29"><path d="M -61.941406 192.253906 L 263.484375 -61.230469 L 511.898438 257.6875 L 186.472656 511.171875 Z M -61.941406 192.253906 " clip-rule="nonzero"/></clipPath><clipPath id="92dc915b0f"><path d="M 2.742188 202.433594 L 258.085938 3.539062 L 451.292969 251.585938 L 195.953125 450.476562 Z M 2.742188 202.433594 " clip-rule="nonzero"/></clipPath><clipPath id="4a5ca2e67a"><path d="M 3.050781 409.125 L 44.808594 -0.636719 L 446.535156 40.300781 L 404.78125 450.066406 Z M 3.050781 409.125 " clip-rule="nonzero"/></clipPath><clipPath id="285ef7e5a8"><path d="M -181.523438 174.042969 L 275.660156 -182.070312 L 631.773438 275.109375 L 174.589844 631.222656 Z M -181.523438 174.042969 " clip-rule="nonzero"/></clipPath><clipPath id="f016159a0b"><path d="M 3.03125 409.332031 L 44.902344 -1.582031 L 446.636719 39.359375 L 404.761719 450.265625 Z M 3.03125 409.332031 " clip-rule="nonzero"/></clipPath><clipPath id="048d892bf0"><path d="M -674.148438 -448.363281 L 386.125 -1274.242188 L 1234.734375 -184.785156 L 174.460938 641.09375 Z M -674.148438 -448.363281 " clip-rule="nonzero"/></clipPath><clipPath id="d31ffa4da0"><path d="M 1.980469 419.660156 L 156.253906 -1094.28125 L 557.984375 -1053.34375 L 403.703125 460.597656 Z M 1.980469 419.660156 " clip-rule="nonzero"/></clipPath><clipPath id="6a71953778"><path d="M -96.894531 182.363281 L 265.445312 -99.875 L 546.734375 261.25 L 184.394531 543.488281 Z M -96.894531 182.363281 " clip-rule="nonzero"/></clipPath><clipPath id="dd422878dd"><path d="M 48.003906 366.300781 L 80.769531 44.804688 L 402.152344 77.558594 L 369.386719 399.046875 Z M 48.003906 366.300781 " clip-rule="nonzero"/></clipPath><clipPath id="a1c18a21ff"><path d="M -67.292969 182.746094 L 262.21875 -73.921875 L 516.992188 253.160156 L 187.480469 509.824219 Z M -67.292969 182.746094 " clip-rule="nonzero"/></clipPath><clipPath id="e6dc02d944"><path d="M 272.28125 443.265625 L 0.941406 268.269531 L 178.632812 -7.425781 L 450 167.578125 Z M 272.28125 443.265625 " clip-rule="nonzero"/></clipPath><clipPath id="e64da5b38d"><path d="M -216.003906 159.871094 L 280.089844 -226.546875 L 667.457031 270.757812 L 171.363281 657.179688 Z M -216.003906 159.871094 " clip-rule="nonzero"/></clipPath><clipPath id="8c6a799718"><path d="M -17.714844 413.738281 L 27.332031 -28.3125 L 469.234375 16.71875 L 424.1875 458.777344 Z M -17.714844 413.738281 " clip-rule="nonzero"/></clipPath><clipPath id="68bf980618"><path d="M -67.292969 182.746094 L 262.21875 -73.921875 L 516.992188 253.160156 L 187.480469 509.824219 Z M -67.292969 182.746094 " clip-rule="nonzero"/></clipPath><clipPath id="c33a3ffa14"><path d="M 272.28125 443.265625 L 0.941406 268.269531 L 178.632812 -7.425781 L 450 167.578125 Z M 272.28125 443.265625 " clip-rule="nonzero"/></clipPath><clipPath id="a3f5254f3e"><path d="M 78 81 L 370 81 L 370 370 L 78 370 Z M 78 81 " clip-rule="nonzero"/></clipPath><clipPath id="8480e80baa"><path d="M -61.941406 192.253906 L 263.484375 -61.230469 L 511.898438 257.6875 L 186.472656 511.171875 Z M -61.941406 192.253906 " clip-rule="nonzero"/></clipPath><clipPath id="99a532660b"><path d="M -61.941406 192.253906 L 263.484375 -61.230469 L 511.898438 257.6875 L 186.472656 511.171875 Z M -61.941406 192.253906 " clip-rule="nonzero"/></clipPath><clipPath id="2020e061fb"><path d="M 26.664062 195.519531 L 251.609375 20.304688 L 431.558594 251.328125 L 206.613281 426.542969 Z M 26.664062 195.519531 " clip-rule="nonzero"/></clipPath><clipPath id="781c936637"><path d="M 3.050781 409.125 L 44.808594 -0.636719 L 446.535156 40.300781 L 404.78125 450.066406 Z M 3.050781 409.125 " clip-rule="nonzero"/></clipPath><clipPath id="944d9cdc66"><path d="M -181.523438 174.042969 L 275.660156 -182.070312 L 631.773438 275.109375 L 174.589844 631.222656 Z M -181.523438 174.042969 " clip-rule="nonzero"/></clipPath><clipPath id="aee44b60df"><path d="M 3.03125 409.332031 L 44.902344 -1.582031 L 446.636719 39.359375 L 404.761719 450.265625 Z M 3.03125 409.332031 " clip-rule="nonzero"/></clipPath><clipPath id="15174e4af2"><path d="M -674.148438 -448.363281 L 386.125 -1274.242188 L 1234.734375 -184.785156 L 174.460938 641.09375 Z M -674.148438 -448.363281 " clip-rule="nonzero"/></clipPath><clipPath id="abb8fabbc6"><path d="M 1.980469 419.660156 L 156.253906 -1094.28125 L 557.984375 -1053.34375 L 403.703125 460.597656 Z M 1.980469 419.660156 " clip-rule="nonzero"/></clipPath><clipPath id="aace6d09d6"><path d="M -66.882812 188.289062 L 260.195312 -66.484375 L 515.917969 261.8125 L 188.835938 516.582031 Z M -66.882812 188.289062 " clip-rule="nonzero"/></clipPath><clipPath id="6620c4ea24"><path d="M 62.761719 354.265625 L 92.109375 66.261719 L 386.714844 96.28125 L 357.363281 384.292969 Z M 62.761719 354.265625 " clip-rule="nonzero"/></clipPath><clipPath id="fb0fe41980"><path d="M -44.035156 190.027344 L 252.644531 -41.066406 L 485.632812 258.046875 L 188.953125 489.144531 Z M -44.035156 190.027344 " clip-rule="nonzero"/></clipPath><clipPath id="3dcb8a8302"><path d="M 424.804688 182.21875 L 266.238281 428.21875 L 16.066406 266.902344 L 174.640625 20.878906 Z M 424.804688 182.21875 " clip-rule="nonzero"/></clipPath><clipPath id="8df363e761"><path d="M -180.574219 175.257812 L 268.09375 -174.226562 L 616.628906 273.230469 L 167.960938 622.710938 Z M -180.574219 175.257812 " clip-rule="nonzero"/></clipPath><clipPath id="87f708e493"><path d="M -2.957031 401.710938 L 37.308594 6.539062 L 439.039062 47.480469 L 398.769531 442.644531 Z M -2.957031 401.710938 " clip-rule="nonzero"/></clipPath><clipPath id="bbdc816723"><path d="M -44.035156 190.027344 L 252.644531 -41.066406 L 485.632812 258.046875 L 188.953125 489.144531 Z M -44.035156 190.027344 " clip-rule="nonzero"/></clipPath><clipPath id="7c1f6d2ddb"><path d="M 424.804688 182.21875 L 266.238281 428.21875 L 16.066406 266.902344 L 174.640625 20.878906 Z M 424.804688 182.21875 " clip-rule="nonzero"/></clipPath><clipPath id="11981c2261"><path d="M 116 101 L 350 101 L 350 343 L 116 343 Z M 116 101 " clip-rule="nonzero"/></clipPath><clipPath id="ee5b7f62a5"><path d="M -61.941406 192.253906 L 263.484375 -61.230469 L 511.898438 257.6875 L 186.472656 511.171875 Z M -61.941406 192.253906 " clip-rule="nonzero"/></clipPath><clipPath id="4439140f63"><path d="M -61.941406 192.253906 L 263.484375 -61.230469 L 511.898438 257.6875 L 186.472656 511.171875 Z M -61.941406 192.253906 " clip-rule="nonzero"/></clipPath><clipPath id="5f3bd0641b"><path d="M 60.324219 198.605469 L 248.792969 51.804688 L 397.488281 242.703125 L 209.023438 389.503906 Z M 60.324219 198.605469 " clip-rule="nonzero"/></clipPath><clipPath id="6b4d07bcc3"><path d="M 3.050781 409.125 L 44.808594 -0.636719 L 446.535156 40.300781 L 404.78125 450.066406 Z M 3.050781 409.125 " clip-rule="nonzero"/></clipPath><clipPath id="72d3238612"><path d="M -181.523438 174.042969 L 275.660156 -182.070312 L 631.773438 275.109375 L 174.589844 631.222656 Z M -181.523438 174.042969 " clip-rule="nonzero"/></clipPath><clipPath id="3ce2c0c7b2"><path d="M 3.03125 409.332031 L 44.902344 -1.582031 L 446.636719 39.359375 L 404.761719 450.265625 Z M 3.03125 409.332031 " clip-rule="nonzero"/></clipPath><clipPath id="54570dacae"><path d="M -674.148438 -448.363281 L 386.125 -1274.242188 L 1234.734375 -184.785156 L 174.460938 641.09375 Z M -674.148438 -448.363281 " clip-rule="nonzero"/></clipPath><clipPath id="f0aaa39005"><path d="M 1.980469 419.660156 L 156.253906 -1094.28125 L 557.984375 -1053.34375 L 403.703125 460.597656 Z M 1.980469 419.660156 " clip-rule="nonzero"/></clipPath><clipPath id="cc9d634780"><path d="M -9.160156 192.167969 L 261.988281 -19.039062 L 473.195312 252.109375 L 202.046875 463.316406 Z M -9.160156 192.167969 " clip-rule="nonzero"/></clipPath><clipPath id="6b5d169333"><path d="M 98.96875 330.886719 L 123.535156 89.765625 L 364.578125 114.332031 L 340.003906 355.453125 Z M 98.96875 330.886719 " clip-rule="nonzero"/></clipPath><clipPath id="abdda6bba3"><path d="M -3.347656 189.59375 L 254.425781 -11.191406 L 457.105469 249.011719 L 199.332031 449.800781 Z M -3.347656 189.59375 " clip-rule="nonzero"/></clipPath><clipPath id="127b7b54a7"><path d="M 371.425781 313.976562 L 134.71875 365.144531 L 82.53125 123.417969 L 319.234375 72.277344 Z M 371.425781 313.976562 " clip-rule="nonzero"/></clipPath><clipPath id="4aa51648ba"><path d="M -85.542969 179.378906 L 268.285156 -96.230469 L 543.894531 257.601562 L 190.066406 533.210938 Z M -85.542969 179.378906 " clip-rule="nonzero"/></clipPath><clipPath id="ea05a7fb91"><path d="M 55.382812 360.28125 L 87.464844 45.488281 L 402.152344 77.558594 L 370.070312 392.347656 Z M 55.382812 360.28125 " clip-rule="nonzero"/></clipPath><clipPath id="39012c67a5"><path d="M -3.347656 189.59375 L 254.425781 -11.191406 L 457.105469 249.011719 L 199.332031 449.800781 Z M -3.347656 189.59375 " clip-rule="nonzero"/></clipPath><clipPath id="49e88eadb1"><path d="M 371.425781 313.976562 L 134.71875 365.144531 L 82.53125 123.417969 L 319.234375 72.277344 Z M 371.425781 313.976562 " clip-rule="nonzero"/></clipPath><clipPath id="55eedad2ea"><path d="M 134 127 L 317 127 L 317 311 L 134 311 Z M 134 127 " clip-rule="nonzero"/></clipPath><clipPath id="ec2e5874d8"><path d="M -61.941406 192.253906 L 263.484375 -61.230469 L 511.898438 257.6875 L 186.472656 511.171875 Z M -61.941406 192.253906 " clip-rule="nonzero"/></clipPath><clipPath id="d23cefe8d8"><path d="M -61.941406 192.253906 L 263.484375 -61.230469 L 511.898438 257.6875 L 186.472656 511.171875 Z M -61.941406 192.253906 " clip-rule="nonzero"/></clipPath><clipPath id="f5a9bfbb66"><path d="M 97.773438 206.554688 L 243.683594 92.902344 L 355.441406 236.378906 L 209.535156 350.03125 Z M 97.773438 206.554688 " clip-rule="nonzero"/></clipPath><clipPath id="3531db618a"><path d="M 3.050781 409.125 L 44.808594 -0.636719 L 446.535156 40.300781 L 404.78125 450.066406 Z M 3.050781 409.125 " clip-rule="nonzero"/></clipPath><clipPath id="cccea27afe"><path d="M -181.523438 174.042969 L 275.660156 -182.070312 L 631.773438 275.109375 L 174.589844 631.222656 Z M -181.523438 174.042969 " clip-rule="nonzero"/></clipPath><clipPath id="1c1331243c"><path d="M 3.03125 409.332031 L 44.902344 -1.582031 L 446.636719 39.359375 L 404.761719 450.265625 Z M 3.03125 409.332031 " clip-rule="nonzero"/></clipPath><clipPath id="39e85ddfc0"><path d="M -674.148438 -448.363281 L 386.125 -1274.242188 L 1234.734375 -184.785156 L 174.460938 641.09375 Z M -674.148438 -448.363281 " clip-rule="nonzero"/></clipPath><clipPath id="b83c1287b6"><path d="M 1.980469 419.660156 L 156.253906 -1094.28125 L 557.984375 -1053.34375 L 403.703125 460.597656 Z M 1.980469 419.660156 " clip-rule="nonzero"/></clipPath><clipPath id="7b695f402c"><path d="M 34.371094 195.378906 L 249.585938 27.742188 L 417.222656 242.957031 L 202.007812 410.597656 Z M 34.371094 195.378906 " clip-rule="nonzero"/></clipPath><clipPath id="732c822214"><path d="M 121.785156 306.144531 L 141.578125 111.910156 L 329.050781 131.011719 L 309.257812 325.246094 Z M 121.785156 306.144531 " clip-rule="nonzero"/></clipPath><clipPath id="7e7bf21efc"><path d="M 57.484375 194.957031 L 245.949219 48.15625 L 393.699219 237.839844 L 205.234375 384.640625 Z M 57.484375 194.957031 " clip-rule="nonzero"/></clipPath><clipPath id="10a358ee03"><path d="M 253.558594 345.660156 L 96.699219 244.480469 L 197.839844 87.53125 L 354.726562 188.722656 Z M 253.558594 345.660156 " clip-rule="nonzero"/></clipPath><clipPath id="77907a5095"><path d="M -29.035156 184.207031 L 257.917969 -39.3125 L 480.488281 246.425781 L 193.535156 469.945312 Z M -29.035156 184.207031 " clip-rule="nonzero"/></clipPath><clipPath id="3066f228e2"><path d="M 85.578125 329.527344 L 111.515625 75.007812 L 365.941406 100.9375 L 340.003906 355.453125 Z M 85.578125 329.527344 " clip-rule="nonzero"/></clipPath><clipPath id="ebb8b5555e"><path d="M 57.484375 194.957031 L 245.949219 48.15625 L 393.699219 237.839844 L 205.234375 384.640625 Z M 57.484375 194.957031 " clip-rule="nonzero"/></clipPath><clipPath id="670c9f0f74"><path d="M 253.558594 345.660156 L 96.699219 244.480469 L 197.839844 87.53125 L 354.726562 188.722656 Z M 253.558594 345.660156 " clip-rule="nonzero"/></clipPath><clipPath id="f264ca2cd4"><path d="M 180 171 L 278 171 L 278 271 L 180 271 Z M 180 171 " clip-rule="nonzero"/></clipPath><clipPath id="fbc8ce8f40"><path d="M -61.941406 192.253906 L 263.484375 -61.230469 L 511.898438 257.6875 L 186.472656 511.171875 Z M -61.941406 192.253906 " clip-rule="nonzero"/></clipPath><clipPath id="f54577de1a"><path d="M -61.941406 192.253906 L 263.484375 -61.230469 L 511.898438 257.6875 L 186.472656 511.171875 Z M -61.941406 192.253906 " clip-rule="nonzero"/></clipPath><clipPath id="474f7c9708"><path d="M 156.445312 211.648438 L 235.480469 150.085938 L 297.042969 229.121094 L 218.007812 290.683594 Z M 156.445312 211.648438 " clip-rule="nonzero"/></clipPath><clipPath id="b8a01716a4"><path d="M 3.050781 409.125 L 44.808594 -0.636719 L 446.535156 40.300781 L 404.78125 450.066406 Z M 3.050781 409.125 " clip-rule="nonzero"/></clipPath><clipPath id="be65ba9fa3"><path d="M -181.523438 174.042969 L 275.660156 -182.070312 L 631.773438 275.109375 L 174.589844 631.222656 Z M -181.523438 174.042969 " clip-rule="nonzero"/></clipPath><clipPath id="571837e124"><path d="M 3.03125 409.332031 L 44.902344 -1.582031 L 446.636719 39.359375 L 404.761719 450.265625 Z M 3.03125 409.332031 " clip-rule="nonzero"/></clipPath><clipPath id="817dea752b"><path d="M -674.148438 -448.363281 L 386.125 -1274.242188 L 1234.734375 -184.785156 L 174.460938 641.09375 Z M -674.148438 -448.363281 " clip-rule="nonzero"/></clipPath><clipPath id="fa09ede72b"><path d="M 1.980469 419.660156 L 156.253906 -1094.28125 L 557.984375 -1053.34375 L 403.703125 460.597656 Z M 1.980469 419.660156 " clip-rule="nonzero"/></clipPath><clipPath id="0a6d85dd4a"><path d="M 123.730469 209.78125 L 241.675781 117.910156 L 333.542969 235.851562 L 215.601562 327.722656 Z M 123.730469 209.78125 " clip-rule="nonzero"/></clipPath><clipPath id="259ce1a9ee"><path d="M 172.75 270.730469 L 183.671875 163.570312 L 284.105469 173.804688 L 273.179688 280.972656 Z M 172.75 270.730469 " clip-rule="nonzero"/></clipPath><clipPath id="38e5071721"><path d="M 131.707031 207.476562 L 238.707031 124.128906 L 322.050781 231.128906 L 215.050781 314.476562 Z M 131.707031 207.476562 " clip-rule="nonzero"/></clipPath><clipPath id="f21a0233f1"><path d="M 286.535156 258.300781 L 187.90625 279.628906 L 166.597656 180.96875 L 265.222656 159.644531 Z M 286.535156 258.300781 " clip-rule="nonzero"/></clipPath><clipPath id="097570d8f4"><path d="M 90.339844 204.53125 L 241.113281 87.089844 L 359.5 239.078125 L 208.726562 356.519531 Z M 90.339844 204.53125 " clip-rule="nonzero"/></clipPath><clipPath id="2d477b986e"><path d="M 151.296875 282.082031 L 164.949219 148.125 L 298.855469 161.773438 L 285.207031 295.726562 Z M 151.296875 282.082031 " clip-rule="nonzero"/></clipPath><clipPath id="f50602ef9a"><path d="M 131.707031 207.476562 L 238.707031 124.128906 L 322.050781 231.128906 L 215.050781 314.476562 Z M 131.707031 207.476562 " clip-rule="nonzero"/></clipPath><clipPath id="a596ad2b3d"><path d="M 286.535156 258.300781 L 187.90625 279.628906 L 166.597656 180.96875 L 265.222656 159.644531 Z M 286.535156 258.300781 " clip-rule="nonzero"/></clipPath><clipPath id="e86597937c"><path d="M 204 197 L 249 197 L 249 242 L 204 242 Z M 204 197 " clip-rule="nonzero"/></clipPath><clipPath id="a6f5f39c91"><path d="M -61.941406 192.253906 L 263.484375 -61.230469 L 511.898438 257.6875 L 186.472656 511.171875 Z M -61.941406 192.253906 " clip-rule="nonzero"/></clipPath><clipPath id="b2a91a5e87"><path d="M -61.941406 192.253906 L 263.484375 -61.230469 L 511.898438 257.6875 L 186.472656 511.171875 Z M -61.941406 192.253906 " clip-rule="nonzero"/></clipPath><clipPath id="5fad59a0c0"><path d="M 194.433594 215.269531 L 230.910156 186.859375 L 259.324219 223.335938 L 222.847656 251.75 Z M 194.433594 215.269531 " clip-rule="nonzero"/></clipPath><clipPath id="bcdcf7133a"><path d="M 3.050781 409.125 L 44.808594 -0.636719 L 446.535156 40.300781 L 404.78125 450.066406 Z M 3.050781 409.125 " clip-rule="nonzero"/></clipPath><clipPath id="44367abe6f"><path d="M -181.523438 174.042969 L 275.660156 -182.070312 L 631.773438 275.109375 L 174.589844 631.222656 Z M -181.523438 174.042969 " clip-rule="nonzero"/></clipPath><clipPath id="1129c3cf86"><path d="M 3.03125 409.332031 L 44.902344 -1.582031 L 446.636719 39.359375 L 404.761719 450.265625 Z M 3.03125 409.332031 " clip-rule="nonzero"/></clipPath><clipPath id="e597511693"><path d="M -674.148438 -448.363281 L 386.125 -1274.242188 L 1234.734375 -184.785156 L 174.460938 641.09375 Z M -674.148438 -448.363281 " clip-rule="nonzero"/></clipPath><clipPath id="423f050064"><path d="M 1.980469 419.660156 L 156.253906 -1094.28125 L 557.984375 -1053.34375 L 403.703125 460.597656 Z M 1.980469 419.660156 " clip-rule="nonzero"/></clipPath><clipPath id="b116d8593f"><path d="M 174.019531 211.636719 L 231.167969 167.121094 L 276.628906 225.484375 L 219.480469 270 Z M 174.019531 211.636719 " clip-rule="nonzero"/></clipPath><clipPath id="bc9816c375"><path d="M 196.246094 239.292969 L 201.027344 192.40625 L 254.585938 197.867188 L 249.8125 244.75 Z M 196.246094 239.292969 " clip-rule="nonzero"/></clipPath><clipPath id="503ad782c9"><path d="M 182.671875 212.710938 L 232.523438 173.878906 L 271.355469 223.730469 L 221.503906 262.5625 Z M 182.671875 212.710938 " clip-rule="nonzero"/></clipPath><clipPath id="986015e09f"><path d="M 209.621094 245.488281 L 200.03125 201.109375 L 244.429688 191.515625 L 254.015625 235.902344 Z M 209.621094 245.488281 " clip-rule="nonzero"/></clipPath><clipPath id="f7d7834615"><path d="M 161.039062 210.023438 L 232.777344 154.144531 L 289.605469 227.097656 L 217.867188 282.976562 Z M 161.039062 210.023438 " clip-rule="nonzero"/></clipPath><clipPath id="04177197a4"><path d="M 188.867188 245.308594 L 195.011719 185.027344 L 261.964844 191.851562 L 255.820312 252.132812 Z M 188.867188 245.308594 " clip-rule="nonzero"/></clipPath><clipPath id="2a418ca447"><path d="M 182.671875 212.710938 L 232.523438 173.878906 L 271.355469 223.730469 L 221.503906 262.5625 Z M 182.671875 212.710938 " clip-rule="nonzero"/></clipPath><clipPath id="2273c46926"><path d="M 209.621094 245.488281 L 200.03125 201.109375 L 244.429688 191.515625 L 254.015625 235.902344 Z M 209.621094 245.488281 " clip-rule="nonzero"/></clipPath><clipPath id="301f0bd502"><path d="M 107 0 L 338 0 L 338 44 L 107 44 Z M 107 0 " clip-rule="nonzero"/></clipPath><clipPath id="aa16c0847c"><path d="M -61.941406 192.253906 L 263.484375 -61.230469 L 511.898438 257.6875 L 186.472656 511.171875 Z M -61.941406 192.253906 " clip-rule="nonzero"/></clipPath><clipPath id="6cc74b5981"><path d="M -61.941406 192.253906 L 263.484375 -61.230469 L 511.898438 257.6875 L 186.472656 511.171875 Z M -61.941406 192.253906 " clip-rule="nonzero"/></clipPath><clipPath id="f1ea36f685"><path d="M 107.132812 60.558594 L 263.21875 -61.023438 L 337.09375 33.816406 L 181.007812 155.398438 Z M 107.132812 60.558594 " clip-rule="nonzero"/></clipPath><clipPath id="0704842c44"><path d="M 3.050781 409.125 L 44.808594 -0.636719 L 446.535156 40.300781 L 404.78125 450.066406 Z M 3.050781 409.125 " clip-rule="nonzero"/></clipPath><clipPath id="b5f4cfd0fc"><path d="M -181.523438 174.042969 L 275.660156 -182.070312 L 631.773438 275.109375 L 174.589844 631.222656 Z M -181.523438 174.042969 " clip-rule="nonzero"/></clipPath><clipPath id="2df4b86067"><path d="M 3.03125 409.332031 L 44.902344 -1.582031 L 446.636719 39.359375 L 404.761719 450.265625 Z M 3.03125 409.332031 " clip-rule="nonzero"/></clipPath><clipPath id="1a84cc8588"><path d="M -674.148438 -448.363281 L 386.125 -1274.242188 L 1234.734375 -184.785156 L 174.460938 641.09375 Z M -674.148438 -448.363281 " clip-rule="nonzero"/></clipPath><clipPath id="fa0cd59c87"><path d="M 1.980469 419.660156 L 156.253906 -1094.28125 L 557.984375 -1053.34375 L 403.703125 460.597656 Z M 1.980469 419.660156 " clip-rule="nonzero"/></clipPath><clipPath id="53c35ddcfc"><path d="M 54 61 L 396 61 L 396 394 L 54 394 Z M 54 61 " clip-rule="nonzero"/></clipPath><clipPath id="8f40f40db2"><path d="M 149.226562 -12.644531 L 464.996094 152.289062 L 303.539062 461.410156 L -12.234375 296.480469 Z M 149.226562 -12.644531 " clip-rule="nonzero"/></clipPath><clipPath id="e790fd9edf"><path d="M 149.226562 -12.644531 L 464.996094 152.289062 L 303.539062 461.410156 L -12.234375 296.480469 Z M 149.226562 -12.644531 " clip-rule="nonzero"/></clipPath><clipPath id="d3202b929f"><path d="M 152.769531 -7.796875 L 454.390625 149.746094 L 296.234375 452.542969 L -5.386719 295.003906 Z M 152.769531 -7.796875 " clip-rule="nonzero"/></clipPath><clipPath id="ba89a57973"><path d="M 2.28125 115.9375 L 338.785156 2.125 L 450.367188 332.027344 L 113.859375 445.84375 Z M 2.28125 115.9375 " clip-rule="nonzero"/></clipPath><clipPath id="b9444453ff"><path d="M 120.742188 -113.003906 L 563.746094 118.386719 L 332.359375 561.390625 L -110.648438 330.003906 Z M 120.742188 -113.003906 " clip-rule="nonzero"/></clipPath><clipPath id="4783d93903"><path d="M 2.117188 115.996094 L 339.558594 1.863281 L 451.136719 331.769531 L 113.695312 445.898438 Z M 2.117188 115.996094 " clip-rule="nonzero"/></clipPath><clipPath id="0a5fdcb91d"><path d="M 432.957031 -722.242188 L 1460.351562 -185.617188 L 908.960938 870.054688 L -118.4375 333.433594 Z M 432.957031 -722.242188 " clip-rule="nonzero"/></clipPath><clipPath id="0534cd2161"><path d="M -6.367188 118.867188 L 1236.898438 -301.632812 L 1348.480469 28.269531 L 105.210938 448.765625 Z M -6.367188 118.867188 " clip-rule="nonzero"/></clipPath><clipPath id="ae5ab51555"><path d="M 127.703125 -103.367188 L 555.394531 120.023438 L 332.003906 547.710938 L -95.683594 324.324219 Z M 127.703125 -103.367188 " clip-rule="nonzero"/></clipPath><clipPath id="3389f8bc0a"><path d="M 12.59375 118.578125 L 339.691406 7.949219 L 447.347656 326.253906 L 120.25 436.886719 Z M 12.59375 118.578125 " clip-rule="nonzero"/></clipPath><clipPath id="190996ef4d"><path d="M 90 91 L 367 91 L 367 360 L 90 360 Z M 90 91 " clip-rule="nonzero"/></clipPath><clipPath id="e08c45989f"><path d="M 149.226562 -12.644531 L 464.996094 152.289062 L 303.539062 461.410156 L -12.234375 296.480469 Z M 149.226562 -12.644531 " clip-rule="nonzero"/></clipPath><clipPath id="f805e146c4"><path d="M 149.226562 -12.644531 L 464.996094 152.289062 L 303.539062 461.410156 L -12.234375 296.480469 Z M 149.226562 -12.644531 " clip-rule="nonzero"/></clipPath><clipPath id="24bd5e7bec"><path d="M 164.378906 41.757812 L 411.800781 170.988281 L 286.261719 411.34375 L 38.835938 282.113281 Z M 164.378906 41.757812 " clip-rule="nonzero"/></clipPath><clipPath id="11a6a7dbf2"><path d="M 2.28125 115.9375 L 338.785156 2.125 L 450.367188 332.027344 L 113.859375 445.84375 Z M 2.28125 115.9375 " clip-rule="nonzero"/></clipPath><clipPath id="71bcc6d26e"><path d="M 120.742188 -113.003906 L 563.746094 118.386719 L 332.359375 561.390625 L -110.648438 330.003906 Z M 120.742188 -113.003906 " clip-rule="nonzero"/></clipPath><clipPath id="e2a9eee896"><path d="M 2.117188 115.996094 L 339.558594 1.863281 L 451.136719 331.769531 L 113.695312 445.898438 Z M 2.117188 115.996094 " clip-rule="nonzero"/></clipPath><clipPath id="dd41c537bf"><path d="M 432.957031 -722.242188 L 1460.351562 -185.617188 L 908.960938 870.054688 L -118.4375 333.433594 Z M 432.957031 -722.242188 " clip-rule="nonzero"/></clipPath><clipPath id="54e12fca0a"><path d="M -6.367188 118.867188 L 1236.898438 -301.632812 L 1348.480469 28.269531 L 105.210938 448.765625 Z M -6.367188 118.867188 " clip-rule="nonzero"/></clipPath><clipPath id="e8f6e3315a"><path d="M 144.484375 -43.613281 L 495.589844 139.773438 L 312.816406 489.699219 L -38.289062 306.3125 Z M 144.484375 -43.613281 " clip-rule="nonzero"/></clipPath><clipPath id="0b43cd7b8b"><path d="M 51.96875 135.898438 L 315.988281 46.601562 L 405.25 310.527344 L 141.238281 399.820312 Z M 51.96875 135.898438 " clip-rule="nonzero"/></clipPath><clipPath id="953388c249"><path d="M 154.773438 -20.246094 L 474.066406 146.527344 L 308.527344 463.464844 L -10.769531 296.691406 Z M 154.773438 -20.246094 " clip-rule="nonzero"/></clipPath><clipPath id="92838271f6"><path d="M 71.800781 339.433594 L 112.066406 63.894531 L 391.984375 104.71875 L 351.722656 380.277344 Z M 71.800781 339.433594 " clip-rule="nonzero"/></clipPath><clipPath id="6a1f36ab08"><path d="M 119.523438 -145.128906 L 600.234375 105.953125 L 348.539062 587.839844 L -132.171875 336.757812 Z M 119.523438 -145.128906 " clip-rule="nonzero"/></clipPath><clipPath id="2907038cd9"><path d="M -8.769531 101.292969 L 354.25 -21.484375 L 476.988281 341.40625 L 113.96875 464.1875 Z M -8.769531 101.292969 " clip-rule="nonzero"/></clipPath><clipPath id="258e2f95d7"><path d="M 154.773438 -20.246094 L 474.066406 146.527344 L 308.527344 463.464844 L -10.769531 296.691406 Z M 154.773438 -20.246094 " clip-rule="nonzero"/></clipPath><clipPath id="ae67d7da1f"><path d="M 71.800781 339.433594 L 112.066406 63.894531 L 391.984375 104.71875 L 351.722656 380.277344 Z M 71.800781 339.433594 " clip-rule="nonzero"/></clipPath><clipPath id="9660d07154"><path d="M 106 98 L 350 98 L 350 349 L 106 349 Z M 106 98 " clip-rule="nonzero"/></clipPath><clipPath id="2d492e0d35"><path d="M 149.226562 -12.644531 L 464.996094 152.289062 L 303.539062 461.410156 L -12.234375 296.480469 Z M 149.226562 -12.644531 " clip-rule="nonzero"/></clipPath><clipPath id="3af42bb0c8"><path d="M 149.226562 -12.644531 L 464.996094 152.289062 L 303.539062 461.410156 L -12.234375 296.480469 Z M 149.226562 -12.644531 " clip-rule="nonzero"/></clipPath><clipPath id="edadaf2d8c"><path d="M 178.359375 58.058594 L 396.324219 171.90625 L 279.402344 395.765625 L 61.433594 281.917969 Z M 178.359375 58.058594 " clip-rule="nonzero"/></clipPath><clipPath id="f3f3201823"><path d="M 2.28125 115.9375 L 338.785156 2.125 L 450.367188 332.027344 L 113.859375 445.84375 Z M 2.28125 115.9375 " clip-rule="nonzero"/></clipPath><clipPath id="1eee5be4af"><path d="M 120.742188 -113.003906 L 563.746094 118.386719 L 332.359375 561.390625 L -110.648438 330.003906 Z M 120.742188 -113.003906 " clip-rule="nonzero"/></clipPath><clipPath id="3448f9ec99"><path d="M 2.117188 115.996094 L 339.558594 1.863281 L 451.136719 331.769531 L 113.695312 445.898438 Z M 2.117188 115.996094 " clip-rule="nonzero"/></clipPath><clipPath id="c7b32c4be4"><path d="M 432.957031 -722.242188 L 1460.351562 -185.617188 L 908.960938 870.054688 L -118.4375 333.433594 Z M 432.957031 -722.242188 " clip-rule="nonzero"/></clipPath><clipPath id="af2c4ef180"><path d="M -6.367188 118.867188 L 1236.898438 -301.632812 L 1348.480469 28.269531 L 105.210938 448.765625 Z M -6.367188 118.867188 " clip-rule="nonzero"/></clipPath><clipPath id="1f525f08a2"><path d="M 150.570312 -17.941406 L 467.507812 147.597656 L 301.351562 465.714844 L -15.585938 300.175781 Z M 150.570312 -17.941406 " clip-rule="nonzero"/></clipPath><clipPath id="e9d7d5d028"><path d="M 66.695312 143.171875 L 303.207031 63.175781 L 385.03125 305.109375 L 148.515625 385.101562 Z M 66.695312 143.171875 " clip-rule="nonzero"/></clipPath><clipPath id="60c7392613"><path d="M 157.375 0.609375 L 444.859375 150.765625 L 293.472656 440.605469 L 5.988281 290.449219 Z M 157.375 0.609375 " clip-rule="nonzero"/></clipPath><clipPath id="fdf45079bb"><path d="M 331.21875 365.746094 L 81.449219 329.304688 L 118.546875 75.273438 L 368.34375 111.710938 Z M 331.21875 365.746094 " clip-rule="nonzero"/></clipPath><clipPath id="48f075a6a2"><path d="M 120.125 -111.824219 L 554.882812 115.257812 L 328.417969 548.835938 L -106.339844 321.757812 Z M 120.125 -111.824219 " clip-rule="nonzero"/></clipPath><clipPath id="5e402b17af"><path d="M 5.953125 108.570312 L 330.46875 -1.191406 L 442.050781 328.714844 L 117.535156 438.472656 Z M 5.953125 108.570312 " clip-rule="nonzero"/></clipPath><clipPath id="d998ae71ca"><path d="M 157.375 0.609375 L 444.859375 150.765625 L 293.472656 440.605469 L 5.988281 290.449219 Z M 157.375 0.609375 " clip-rule="nonzero"/></clipPath><clipPath id="71198b886e"><path d="M 331.21875 365.746094 L 81.449219 329.304688 L 118.546875 75.273438 L 368.34375 111.710938 Z M 331.21875 365.746094 " clip-rule="nonzero"/></clipPath><clipPath id="4313d94ab0"><path d="M 125 124 L 334 124 L 334 332 L 125 332 Z M 125 124 " clip-rule="nonzero"/></clipPath><clipPath id="300cb12a3a"><path d="M 149.226562 -12.644531 L 464.996094 152.289062 L 303.539062 461.410156 L -12.234375 296.480469 Z M 149.226562 -12.644531 " clip-rule="nonzero"/></clipPath><clipPath id="dc801568bb"><path d="M 149.226562 -12.644531 L 464.996094 152.289062 L 303.539062 461.410156 L -12.234375 296.480469 Z M 149.226562 -12.644531 " clip-rule="nonzero"/></clipPath><clipPath id="3050ff6276"><path d="M 187.976562 85.578125 L 370.601562 180.964844 L 273.984375 365.941406 L 91.363281 270.554688 Z M 187.976562 85.578125 " clip-rule="nonzero"/></clipPath><clipPath id="92c39f63e0"><path d="M 2.28125 115.9375 L 338.785156 2.125 L 450.367188 332.027344 L 113.859375 445.84375 Z M 2.28125 115.9375 " clip-rule="nonzero"/></clipPath><clipPath id="92f95d6456"><path d="M 120.742188 -113.003906 L 563.746094 118.386719 L 332.359375 561.390625 L -110.648438 330.003906 Z M 120.742188 -113.003906 " clip-rule="nonzero"/></clipPath><clipPath id="b647db2c94"><path d="M 2.117188 115.996094 L 339.558594 1.863281 L 451.136719 331.769531 L 113.695312 445.898438 Z M 2.117188 115.996094 " clip-rule="nonzero"/></clipPath><clipPath id="fd0cc1dec9"><path d="M 432.957031 -722.242188 L 1460.351562 -185.617188 L 908.960938 870.054688 L -118.4375 333.433594 Z M 432.957031 -722.242188 " clip-rule="nonzero"/></clipPath><clipPath id="c96dba76b2"><path d="M -6.367188 118.867188 L 1236.898438 -301.632812 L 1348.480469 28.269531 L 105.210938 448.765625 Z M -6.367188 118.867188 " clip-rule="nonzero"/></clipPath><clipPath id="5d327088bc"><path d="M 168.175781 28.746094 L 430.914062 165.976562 L 293.683594 428.71875 L 30.941406 291.484375 Z M 168.175781 28.746094 " clip-rule="nonzero"/></clipPath><clipPath id="c6ccebe89f"><path d="M 97.992188 163.222656 L 296 96.25 L 362.949219 294.195312 L 164.9375 361.164062 Z M 97.992188 163.222656 " clip-rule="nonzero"/></clipPath><clipPath id="e6f0cf457d"><path d="M 172.273438 32.382812 L 422.050781 162.847656 L 290.359375 414.984375 L 40.578125 284.519531 Z M 172.273438 32.382812 " clip-rule="nonzero"/></clipPath><clipPath id="94a71124b8"><path d="M 208.726562 370.988281 L 83.898438 203.53125 L 254.925781 76.105469 L 379.730469 243.570312 Z M 208.726562 370.988281 " clip-rule="nonzero"/></clipPath><clipPath id="037fd0ab13"><path d="M 150.886719 -35.773438 L 493.742188 143.308594 L 314.664062 486.164062 L -28.195312 307.085938 Z M 150.886719 -35.773438 " clip-rule="nonzero"/></clipPath><clipPath id="e51daec0d3"><path d="M 59.332031 139.53125 L 317.847656 52.101562 L 405.25 310.527344 L 146.738281 397.957031 Z M 59.332031 139.53125 " clip-rule="nonzero"/></clipPath><clipPath id="e8437a0739"><path d="M 172.273438 32.382812 L 422.050781 162.847656 L 290.359375 414.984375 L 40.578125 284.519531 Z M 172.273438 32.382812 " clip-rule="nonzero"/></clipPath><clipPath id="94bb53d692"><path d="M 208.726562 370.988281 L 83.898438 203.53125 L 254.925781 76.105469 L 379.730469 243.570312 Z M 208.726562 370.988281 " clip-rule="nonzero"/></clipPath><clipPath id="f814c7c3c6"><path d="M 152 146 L 310 146 L 310 301 L 152 301 Z M 152 146 " clip-rule="nonzero"/></clipPath><clipPath id="0c53ee427d"><path d="M 149.226562 -12.644531 L 464.996094 152.289062 L 303.539062 461.410156 L -12.234375 296.480469 Z M 149.226562 -12.644531 " clip-rule="nonzero"/></clipPath><clipPath id="1de5c3631b"><path d="M 149.226562 -12.644531 L 464.996094 152.289062 L 303.539062 461.410156 L -12.234375 296.480469 Z M 149.226562 -12.644531 " clip-rule="nonzero"/></clipPath><clipPath id="791d903731"><path d="M 195.136719 117.808594 L 336.523438 191.65625 L 263.90625 330.683594 L 122.519531 256.835938 Z M 195.136719 117.808594 " clip-rule="nonzero"/></clipPath><clipPath id="cd8c8fb24d"><path d="M 2.28125 115.9375 L 338.785156 2.125 L 450.367188 332.027344 L 113.859375 445.84375 Z M 2.28125 115.9375 " clip-rule="nonzero"/></clipPath><clipPath id="d44eb1b40b"><path d="M 120.742188 -113.003906 L 563.746094 118.386719 L 332.359375 561.390625 L -110.648438 330.003906 Z M 120.742188 -113.003906 " clip-rule="nonzero"/></clipPath><clipPath id="b910148c5a"><path d="M 2.117188 115.996094 L 339.558594 1.863281 L 451.136719 331.769531 L 113.695312 445.898438 Z M 2.117188 115.996094 " clip-rule="nonzero"/></clipPath><clipPath id="80f320aa54"><path d="M 432.957031 -722.242188 L 1460.351562 -185.617188 L 908.960938 870.054688 L -118.4375 333.433594 Z M 432.957031 -722.242188 " clip-rule="nonzero"/></clipPath><clipPath id="c1ac613436"><path d="M -6.367188 118.867188 L 1236.898438 -301.632812 L 1348.480469 28.269531 L 105.210938 448.765625 Z M -6.367188 118.867188 " clip-rule="nonzero"/></clipPath><clipPath id="6f92f8c6c5"><path d="M 181.222656 64.054688 L 389.765625 172.980469 L 280.84375 381.519531 L 72.300781 272.597656 Z M 181.222656 64.054688 " clip-rule="nonzero"/></clipPath><clipPath id="8fc073ba96"><path d="M 125.570312 172.277344 L 285.078125 118.328125 L 337.152344 272.28125 L 177.640625 326.230469 Z M 125.570312 172.277344 " clip-rule="nonzero"/></clipPath><clipPath id="1db81de61f"><path d="M 189.824219 82.042969 L 372.445312 177.429688 L 276.445312 361.230469 L 93.824219 265.84375 Z M 189.824219 82.042969 " clip-rule="nonzero"/></clipPath><clipPath id="75312c9fb0"><path d="M 141.699219 289.824219 L 164.988281 130.53125 L 324.335938 153.757812 L 301.046875 313.074219 Z M 141.699219 289.824219 " clip-rule="nonzero"/></clipPath><clipPath id="9a01a4757b"><path d="M 167.3125 10.296875 L 445.367188 155.53125 L 300.75 432.410156 L 22.695312 287.175781 Z M 167.3125 10.296875 " clip-rule="nonzero"/></clipPath><clipPath id="4a3ceda3b7"><path d="M 94.269531 152.226562 L 303.28125 81.535156 L 373.949219 290.476562 L 164.9375 361.164062 Z M 94.269531 152.226562 " clip-rule="nonzero"/></clipPath><clipPath id="9f80f55863"><path d="M 189.824219 82.042969 L 372.445312 177.429688 L 276.445312 361.230469 L 93.824219 265.84375 Z M 189.824219 82.042969 " clip-rule="nonzero"/></clipPath><clipPath id="0bc5924a67"><path d="M 141.699219 289.824219 L 164.988281 130.53125 L 324.335938 153.757812 L 301.046875 313.074219 Z M 141.699219 289.824219 " clip-rule="nonzero"/></clipPath><clipPath id="af093746f6"><path d="M 187 182 L 273 182 L 273 269 L 187 269 Z M 187 182 " clip-rule="nonzero"/></clipPath><clipPath id="7b95f03428"><path d="M 149.226562 -12.644531 L 464.996094 152.289062 L 303.539062 461.410156 L -12.234375 296.480469 Z M 149.226562 -12.644531 " clip-rule="nonzero"/></clipPath><clipPath id="300cc6c7fb"><path d="M 149.226562 -12.644531 L 464.996094 152.289062 L 303.539062 461.410156 L -12.234375 296.480469 Z M 149.226562 -12.644531 " clip-rule="nonzero"/></clipPath><clipPath id="3e3d53927f"><path d="M 212.125 165.671875 L 288.710938 205.675781 L 248.710938 282.257812 L 172.125 242.257812 Z M 212.125 165.671875 " clip-rule="nonzero"/></clipPath><clipPath id="2725252198"><path d="M 2.28125 115.9375 L 338.785156 2.125 L 450.367188 332.027344 L 113.859375 445.84375 Z M 2.28125 115.9375 " clip-rule="nonzero"/></clipPath><clipPath id="f58520a8f7"><path d="M 120.742188 -113.003906 L 563.746094 118.386719 L 332.359375 561.390625 L -110.648438 330.003906 Z M 120.742188 -113.003906 " clip-rule="nonzero"/></clipPath><clipPath id="0f38c05919"><path d="M 2.117188 115.996094 L 339.558594 1.863281 L 451.136719 331.769531 L 113.695312 445.898438 Z M 2.117188 115.996094 " clip-rule="nonzero"/></clipPath><clipPath id="fef405e267"><path d="M 432.957031 -722.242188 L 1460.351562 -185.617188 L 908.960938 870.054688 L -118.4375 333.433594 Z M 432.957031 -722.242188 " clip-rule="nonzero"/></clipPath><clipPath id="f0b6bf7a72"><path d="M -6.367188 118.867188 L 1236.898438 -301.632812 L 1348.480469 28.269531 L 105.210938 448.765625 Z M -6.367188 118.867188 " clip-rule="nonzero"/></clipPath><clipPath id="77d8ff3f7d"><path d="M 201.890625 139.332031 L 316.175781 199.027344 L 256.484375 313.3125 L 142.199219 253.617188 Z M 201.890625 139.332031 " clip-rule="nonzero"/></clipPath><clipPath id="5ae4fa4d04"><path d="M 171.59375 199.601562 L 259.597656 169.839844 L 287.492188 252.316406 L 199.484375 282.082031 Z M 171.59375 199.601562 " clip-rule="nonzero"/></clipPath><clipPath id="d64a31315c"><path d="M 206.550781 144.765625 L 310.234375 198.921875 L 256.078125 302.601562 L 152.394531 248.449219 Z M 206.550781 144.765625 " clip-rule="nonzero"/></clipPath><clipPath id="49d5423c44"><path d="M 222.054688 284.449219 L 170.035156 214.679688 L 239.835938 162.667969 L 291.851562 232.433594 Z M 222.054688 284.449219 " clip-rule="nonzero"/></clipPath><clipPath id="c43cea18f8"><path d="M 194.0625 111.25 L 340.160156 187.558594 L 263.238281 334.835938 L 117.140625 258.527344 Z M 194.0625 111.25 " clip-rule="nonzero"/></clipPath><clipPath id="0569ed2750"><path d="M 155.011719 186.828125 L 265.019531 149.625 L 302.210938 259.589844 L 192.207031 296.796875 Z M 155.011719 186.828125 " clip-rule="nonzero"/></clipPath><clipPath id="19dd697a04"><path d="M 206.550781 144.765625 L 310.234375 198.921875 L 256.078125 302.601562 L 152.394531 248.449219 Z M 206.550781 144.765625 " clip-rule="nonzero"/></clipPath><clipPath id="eb30bc2561"><path d="M 222.054688 284.449219 L 170.035156 214.679688 L 239.835938 162.667969 L 291.851562 232.433594 Z M 222.054688 284.449219 " clip-rule="nonzero"/></clipPath><clipPath id="94d9aae34e"><path d="M 211 203 L 251 203 L 251 243 L 211 243 Z M 211 203 " clip-rule="nonzero"/></clipPath><clipPath id="651f63184b"><path d="M 149.226562 -12.644531 L 464.996094 152.289062 L 303.539062 461.410156 L -12.234375 296.480469 Z M 149.226562 -12.644531 " clip-rule="nonzero"/></clipPath><clipPath id="aebc93883a"><path d="M 149.226562 -12.644531 L 464.996094 152.289062 L 303.539062 461.410156 L -12.234375 296.480469 Z M 149.226562 -12.644531 " clip-rule="nonzero"/></clipPath><clipPath id="1ac5ebeb66"><path d="M 222.871094 196.78125 L 258.21875 215.242188 L 239.757812 250.589844 L 204.410156 232.125 Z M 222.871094 196.78125 " clip-rule="nonzero"/></clipPath><clipPath id="7d058e716f"><path d="M 2.28125 115.9375 L 338.785156 2.125 L 450.367188 332.027344 L 113.859375 445.84375 Z M 2.28125 115.9375 " clip-rule="nonzero"/></clipPath><clipPath id="5d5fcfdebd"><path d="M 120.742188 -113.003906 L 563.746094 118.386719 L 332.359375 561.390625 L -110.648438 330.003906 Z M 120.742188 -113.003906 " clip-rule="nonzero"/></clipPath><clipPath id="cb047dac7b"><path d="M 2.117188 115.996094 L 339.558594 1.863281 L 451.136719 331.769531 L 113.695312 445.898438 Z M 2.117188 115.996094 " clip-rule="nonzero"/></clipPath><clipPath id="50dde0b5e3"><path d="M 432.957031 -722.242188 L 1460.351562 -185.617188 L 908.960938 870.054688 L -118.4375 333.433594 Z M 432.957031 -722.242188 " clip-rule="nonzero"/></clipPath><clipPath id="e79801ced0"><path d="M -6.367188 118.867188 L 1236.898438 -301.632812 L 1348.480469 28.269531 L 105.210938 448.765625 Z M -6.367188 118.867188 " clip-rule="nonzero"/></clipPath><clipPath id="7ef151e5cf"><path d="M 218.421875 179.460938 L 273.796875 208.382812 L 244.257812 264.9375 L 188.882812 236.011719 Z M 218.421875 179.460938 " clip-rule="nonzero"/></clipPath><clipPath id="765f16b40a"><path d="M 204.671875 206.796875 L 243.175781 193.777344 L 258.050781 237.761719 L 219.550781 250.785156 Z M 204.671875 206.796875 " clip-rule="nonzero"/></clipPath><clipPath id="7a4ee4590a"><path d="M 220.675781 186.632812 L 268.980469 211.867188 L 243.75 260.171875 L 195.441406 234.941406 Z M 220.675781 186.632812 " clip-rule="nonzero"/></clipPath><clipPath id="864a3413f5"><path d="M 204.59375 219.507812 L 235.988281 196.109375 L 259.398438 227.515625 L 227.996094 250.917969 Z M 204.59375 219.507812 " clip-rule="nonzero"/></clipPath><clipPath id="4b83e611a3"><path d="M 215.046875 168.699219 L 284.558594 205.007812 L 247.636719 275.699219 L 178.121094 239.390625 Z M 215.046875 168.699219 " clip-rule="nonzero"/></clipPath><clipPath id="94d230b005"><path d="M 197.308594 203.160156 L 246.816406 186.417969 L 265.410156 241.398438 L 215.90625 258.140625 Z M 197.308594 203.160156 " clip-rule="nonzero"/></clipPath><clipPath id="6a010219ba"><path d="M 220.675781 186.632812 L 268.980469 211.867188 L 243.75 260.171875 L 195.441406 234.941406 Z M 220.675781 186.632812 " clip-rule="nonzero"/></clipPath><clipPath id="627c25b1fa"><path d="M 204.59375 219.507812 L 235.988281 196.109375 L 259.398438 227.515625 L 227.996094 250.917969 Z M 204.59375 219.507812 " clip-rule="nonzero"/></clipPath><clipPath id="e068499807"><path d="M 321 72 L 450 72 L 450 244 L 321 244 Z M 321 72 " clip-rule="nonzero"/></clipPath><clipPath id="7c00d8987f"><path d="M 149.226562 -12.644531 L 464.996094 152.289062 L 303.539062 461.410156 L -12.234375 296.480469 Z M 149.226562 -12.644531 " clip-rule="nonzero"/></clipPath><clipPath id="d553986e51"><path d="M 149.226562 -12.644531 L 464.996094 152.289062 L 303.539062 461.410156 L -12.234375 296.480469 Z M 149.226562 -12.644531 " clip-rule="nonzero"/></clipPath><clipPath id="7d29495443"><path d="M 313.058594 72.925781 L 464.304688 151.925781 L 416.304688 243.824219 L 265.054688 164.828125 Z M 313.058594 72.925781 " clip-rule="nonzero"/></clipPath><clipPath id="c854102605"><path d="M 2.28125 115.9375 L 338.785156 2.125 L 450.367188 332.027344 L 113.859375 445.84375 Z M 2.28125 115.9375 " clip-rule="nonzero"/></clipPath><clipPath id="eebd268edc"><path d="M 120.742188 -113.003906 L 563.746094 118.386719 L 332.359375 561.390625 L -110.648438 330.003906 Z M 120.742188 -113.003906 " clip-rule="nonzero"/></clipPath><clipPath id="fcfc597e84"><path d="M 2.117188 115.996094 L 339.558594 1.863281 L 451.136719 331.769531 L 113.695312 445.898438 Z M 2.117188 115.996094 " clip-rule="nonzero"/></clipPath><clipPath id="6970a4c8c9"><path d="M 432.957031 -722.242188 L 1460.351562 -185.617188 L 908.960938 870.054688 L -118.4375 333.433594 Z M 432.957031 -722.242188 " clip-rule="nonzero"/></clipPath><clipPath id="faeb92699d"><path d="M -6.367188 118.867188 L 1236.898438 -301.632812 L 1348.480469 28.269531 L 105.210938 448.765625 Z M -6.367188 118.867188 " clip-rule="nonzero"/></clipPath></defs><g clip-path="url(#5f2a35edf7)"><g clip-path="url(#507d50c8d9)"><g clip-path="url(#db6d4bb567)"><g clip-path="url(#1389a19df5)"><g clip-path="url(#25c40640a1)"><g clip-path="url(#a71da49ab3)"><g clip-path="url(#262683ce71)"><g clip-path="url(#eee5e773ed)"><g clip-path="url(#097192ae31)"><g clip-path="url(#d3fd43009b)"><g clip-path="url(#732adf6e2d)"><path fill="#5271ff" d="M 284.59375 436.542969 C 264.191406 443.148438 209.605469 459.945312 148.484375 437.085938 C 101.953125 419.671875 75.542969 388.167969 63.722656 373.742188 C 8.90625 306.785156 10.964844 228.882812 11.984375 204.726562 C 13.148438 176.1875 14.910156 133.589844 42.53125 91.300781 C 88.828125 20.507812 179.8125 -6.703125 253.492188 4.175781 C 265.519531 5.949219 312.769531 14.007812 358.578125 50.90625 C 366.9375 57.644531 408.867188 92.433594 430.839844 155.59375 C 438.230469 176.816406 458.902344 236.273438 434.171875 300.804688 C 418.441406 341.867188 391.355469 366.542969 373.285156 382.980469 C 358.601562 396.347656 330.027344 421.835938 284.59375 436.542969 Z M 284.59375 436.542969 " fill-opacity="1" fill-rule="nonzero"/></g></g></g></g></g></g></g></g></g></g></g><g clip-path="url(#9600837dcc)"><g clip-path="url(#20c5d35956)"><g clip-path="url(#d9f3dc213e)"><g clip-path="url(#c922267664)"><g clip-path="url(#e47ab37180)"><g clip-path="url(#669dae587d)"><g clip-path="url(#c6673cee88)"><g clip-path="url(#0b04f3c624)"><g clip-path="url(#3c09a0be69)"><g clip-path="url(#966228a8cd)"><g clip-path="url(#78d039a1bd)"><g clip-path="url(#04a8e4fff8)"><g clip-path="url(#4d29cdf2f1)"><g clip-path="url(#ca9a9e0814)"><g clip-path="url(#29c281fea2)"><g clip-path="url(#90efa97ecb)"><g clip-path="url(#8fdbe59492)"><path fill="#000000" d="M 190.8125 399.054688 C 173.652344 396.316406 128.058594 388.359375 92.332031 349.265625 C 65.171875 319.527344 57.691406 286.996094 54.464844 272.183594 C 39.550781 203.519531 69.699219 147.863281 79.332031 130.738281 C 90.660156 110.511719 107.617188 80.3125 143.105469 59.867188 C 202.570312 25.671875 278.246094 39.507812 327.453125 74.523438 C 335.460938 80.246094 366.605469 103.488281 386.089844 147.0625 C 389.671875 155.058594 407.128906 195.683594 399.738281 249.535156 C 397.265625 267.609375 390.328125 318.292969 348.703125 355.882812 C 322.234375 379.835938 293.601562 387.703125 274.519531 392.960938 C 259.015625 397.238281 228.996094 405.144531 190.8125 399.054688 Z M 190.8125 399.054688 " fill-opacity="1" fill-rule="nonzero"/></g></g></g></g></g></g></g></g></g></g></g></g></g></g></g></g></g><g clip-path="url(#fc8928dec1)"><g clip-path="url(#d32f6166a9)"><g clip-path="url(#ac64c7ccf9)"><g clip-path="url(#555c4f7a44)"><g clip-path="url(#e8d6b7da55)"><g clip-path="url(#03a62d4a59)"><g clip-path="url(#e9c8b728cf)"><g clip-path="url(#3a53644b23)"><g clip-path="url(#f376972e5f)"><g clip-path="url(#75186fccd4)"><g clip-path="url(#91ba2b96ff)"><g clip-path="url(#6338e789f2)"><g clip-path="url(#6b44991dd6)"><g clip-path="url(#7a3960eb79)"><g clip-path="url(#517582811f)"><g clip-path="url(#6cc81d7c20)"><g clip-path="url(#da716c0170)"><path fill="#000000" d="M 385.503906 254.464844 C 383.039062 270.023438 375.835938 311.34375 340.398438 343.703125 C 313.390625 368.328125 283.882812 375.105469 270.445312 378.015625 C 208.144531 391.511719 157.664062 364.164062 142.101562 355.4375 C 123.761719 345.125 96.351562 329.769531 77.789062 297.558594 C 46.757812 243.648438 59.257812 175.035156 91.015625 130.46875 C 96.199219 123.21875 117.296875 94.984375 156.828125 77.34375 C 164.054688 74.089844 200.921875 58.289062 249.773438 64.996094 C 266.179688 67.253906 312.160156 73.558594 346.273438 111.289062 C 368.015625 135.332031 375.15625 161.269531 379.945312 178.574219 C 383.824219 192.617188 391.039062 219.84375 385.503906 254.464844 Z M 385.503906 254.464844 " fill-opacity="1" fill-rule="nonzero"/></g></g></g></g></g></g></g></g></g></g></g></g></g></g></g></g></g><g clip-path="url(#df8b1e75a9)"><g clip-path="url(#c519aec46c)"><g clip-path="url(#4fde6d7dae)"><g clip-path="url(#ef43787834)"><g clip-path="url(#de13048b80)"><g clip-path="url(#6378b77b66)"><g clip-path="url(#bfe0833d98)"><g clip-path="url(#3ea4fb346c)"><g clip-path="url(#618642a6d0)"><g clip-path="url(#a1afdb8051)"><g clip-path="url(#cbd82bcf62)"><g clip-path="url(#3cc683d052)"><g clip-path="url(#cab44ceb8a)"><g clip-path="url(#24decbe803)"><g clip-path="url(#6e5b1e8cb2)"><g clip-path="url(#f45bbb3fe5)"><g clip-path="url(#c35290dde0)"><path fill="#05445e" d="M 304.585938 330.824219 C 294.050781 338.484375 265.65625 358.433594 225.9375 356.566406 C 195.691406 355.09375 174.398438 341.730469 164.8125 335.539062 C 120.351562 306.84375 106.707031 261.152344 102.699219 246.894531 C 97.953125 230.109375 90.851562 204.992188 98.792969 175.25 C 112.074219 125.429688 159.542969 92.621094 204.257812 85.179688 C 211.535156 83.972656 240.414062 79.832031 273.933594 92.75 C 280.097656 95.105469 310.960938 107.5 335.703125 140.125 C 344.035156 151.105469 367.324219 181.820312 365.296875 223.96875 C 364 250.773438 353.035156 270.1875 345.699219 283.136719 C 339.765625 293.644531 328.074219 313.792969 304.585938 330.824219 Z M 304.585938 330.824219 " fill-opacity="1" fill-rule="nonzero"/></g></g></g></g></g></g></g></g></g></g></g></g></g></g></g></g></g><g clip-path="url(#460a1b5e48)"><g clip-path="url(#6d82faf6ee)"><g clip-path="url(#2318ee86ad)"><g clip-path="url(#6344cc8656)"><g clip-path="url(#f1cada08a9)"><g clip-path="url(#e3ab68bc0f)"><g clip-path="url(#07802751e2)"><g clip-path="url(#1d4c3ce247)"><g clip-path="url(#d6c0324315)"><g clip-path="url(#e8a3dab83d)"><g clip-path="url(#2b915be084)"><g clip-path="url(#7ffb0a8f50)"><g clip-path="url(#b969daef82)"><g clip-path="url(#6622c1875f)"><g clip-path="url(#00028f34aa)"><g clip-path="url(#5b157f3ada)"><g clip-path="url(#6c40a0551a)"><path fill="#000000" d="M 204.03125 318.992188 C 194.113281 317.390625 167.75 312.828125 147.054688 290.523438 C 131.308594 273.527344 126.941406 254.996094 125.046875 246.5625 C 116.328125 207.441406 133.671875 175.808594 139.214844 166.050781 C 145.742188 154.574219 155.484375 137.410156 175.988281 125.8125 C 210.292969 106.425781 254.054688 114.402344 282.507812 134.445312 C 287.148438 137.683594 305.1875 150.992188 316.527344 175.820312 C 318.59375 180.371094 328.746094 203.523438 324.542969 234.171875 C 323.15625 244.457031 319.195312 273.316406 295.230469 294.644531 C 279.960938 308.226562 263.425781 312.675781 252.398438 315.632812 C 243.445312 318.058594 226.105469 322.515625 204.03125 318.992188 Z M 204.03125 318.992188 " fill-opacity="1" fill-rule="nonzero"/></g></g></g></g></g></g></g></g></g></g></g></g></g></g></g></g></g><g clip-path="url(#0ad1b13d09)"><g clip-path="url(#5b94dc599d)"><g clip-path="url(#cbb53840c3)"><g clip-path="url(#eeede60894)"><g clip-path="url(#c8d273dd1e)"><g clip-path="url(#ddc872b33b)"><g clip-path="url(#d80a8a404f)"><g clip-path="url(#ed8233744c)"><g clip-path="url(#8e3179952b)"><g clip-path="url(#929d266551)"><g clip-path="url(#8464d4b604)"><g clip-path="url(#42ca312249)"><g clip-path="url(#110ba4a49b)"><g clip-path="url(#3a124f33ee)"><g clip-path="url(#256e2c9110)"><g clip-path="url(#a2542dbcef)"><g clip-path="url(#816f015988)"><path fill="#5271ff" d="M 257.015625 264.535156 C 252.597656 267.703125 240.777344 276.027344 224.359375 275.421875 C 211.839844 274.957031 203.085938 269.53125 199.148438 267.03125 C 180.859375 255.398438 175.414062 236.679688 173.808594 230.828125 C 171.914062 223.953125 169.066406 213.667969 172.476562 201.398438 C 178.167969 180.875 197.953125 167.199219 216.488281 163.953125 C 219.5 163.441406 231.484375 161.613281 245.292969 166.785156 C 247.804688 167.734375 260.5625 172.707031 270.660156 186.023438 C 274.039062 190.503906 283.566406 203.007812 282.546875 220.347656 C 281.921875 231.382812 277.289062 239.394531 274.21875 244.757812 C 271.734375 249.097656 266.792969 257.421875 257.015625 264.535156 Z M 257.015625 264.535156 " fill-opacity="1" fill-rule="nonzero"/></g></g></g></g></g></g></g></g></g></g></g></g></g></g></g></g></g><g clip-path="url(#256ce6c564)"><g clip-path="url(#82529b5c60)"><g clip-path="url(#1e9c8fb1a1)"><g clip-path="url(#339887cc73)"><g clip-path="url(#eea7837091)"><g clip-path="url(#23eb1025a6)"><g clip-path="url(#b010d9f053)"><g clip-path="url(#b4c4a06b31)"><g clip-path="url(#8b9cd92d20)"><g clip-path="url(#69bf8de315)"><g clip-path="url(#c46a0158bf)"><g clip-path="url(#86929f3a37)"><g clip-path="url(#195f561374)"><g clip-path="url(#6f9b15e043)"><g clip-path="url(#128bffbe66)"><g clip-path="url(#ca352962ed)"><g clip-path="url(#ce7c385b72)"><path fill="#000000" d="M 203.234375 231.367188 C 201.800781 229.398438 198.066406 224.09375 198.34375 216.683594 C 198.546875 211.042969 200.980469 207.125 202.128906 205.328125 C 207.347656 197.101562 215.796875 194.652344 218.425781 193.914062 C 221.515625 193.054688 226.160156 191.773438 231.664062 193.308594 C 240.90625 195.867188 247.066406 204.796875 248.515625 213.125 C 248.753906 214.484375 249.558594 219.871094 247.226562 226.09375 C 246.816406 227.25 244.574219 232.972656 238.570312 237.519531 C 236.5625 239.058594 230.9375 243.335938 223.128906 242.875 C 218.15625 242.609375 214.53125 240.515625 212.132812 239.121094 C 210.183594 237.992188 206.429688 235.78125 203.234375 231.367188 Z M 203.234375 231.367188 " fill-opacity="1" fill-rule="nonzero"/></g></g></g></g></g></g></g></g></g></g></g></g></g></g></g></g></g><g clip-path="url(#b84ef68cdd)"><g clip-path="url(#dc0b9bcb0b)"><g clip-path="url(#622cdfb151)"><g clip-path="url(#a1131d4c0c)"><g clip-path="url(#7eae73aad3)"><g clip-path="url(#bfbfd65ba3)"><g clip-path="url(#0274eb791a)"><g clip-path="url(#3127e80d60)"><g clip-path="url(#8307c40402)"><path fill="#6f779d" d="M 8.410156 94.410156 L -22.441406 -3.152344 L 68.117188 -113.554688 L -69.457031 -151.816406 L -100.339844 -249.484375 L 137.714844 -180.308594 L 297.542969 -230.855469 L 323.234375 -149.609375 L 163.40625 -99.0625 Z M 8.410156 94.410156 " fill-opacity="1" fill-rule="nonzero"/></g></g></g></g></g></g></g></g></g><g clip-path="url(#e4649437cb)"><g clip-path="url(#ccb6151675)"><g clip-path="url(#c975d44eba)"><g clip-path="url(#f3d85c286e)"><g clip-path="url(#ea15afdea5)"><g clip-path="url(#821d9c861a)"><g clip-path="url(#0b5fc6fc67)"><g clip-path="url(#bbb9b59da5)"><g clip-path="url(#1f231410be)"><g clip-path="url(#aff4dc1522)"><g clip-path="url(#a7cd2c2cd2)"><path fill="#000000" d="M 198.898438 418.421875 C 180 416.625 129.75 411.109375 88.109375 371.074219 C 56.414062 340.589844 46.015625 305.71875 41.476562 289.847656 C 20.441406 216.195312 49.460938 153.617188 58.769531 134.347656 C 69.734375 111.566406 86.121094 77.570312 123.410156 52.90625 C 185.886719 11.636719 269.371094 21.464844 325.417969 56.175781 C 334.570312 61.835938 370.136719 84.972656 394.402344 131.039062 C 398.832031 139.449219 420.6875 182.4375 416.367188 241.472656 C 414.921875 261.3125 410.847656 316.882812 368.097656 360.636719 C 340.894531 388.480469 310.226562 399.019531 289.769531 406.03125 C 273.144531 411.742188 240.980469 422.417969 198.898438 418.421875 Z M 198.898438 418.421875 " fill-opacity="1" fill-rule="nonzero"/></g></g></g></g></g></g></g></g></g></g></g><g clip-path="url(#24993d6769)"><g clip-path="url(#7c2130dae7)"><g clip-path="url(#1ed7316f29)"><g clip-path="url(#92dc915b0f)"><g clip-path="url(#4a5ca2e67a)"><g clip-path="url(#285ef7e5a8)"><g clip-path="url(#f016159a0b)"><g clip-path="url(#048d892bf0)"><g clip-path="url(#d31ffa4da0)"><g clip-path="url(#6a71953778)"><g clip-path="url(#dd422878dd)"><g clip-path="url(#a1c18a21ff)"><g clip-path="url(#e6dc02d944)"><g clip-path="url(#e64da5b38d)"><g clip-path="url(#8c6a799718)"><g clip-path="url(#68bf980618)"><g clip-path="url(#c33a3ffa14)"><path fill="#000000" d="M 135.855469 355.03125 C 122.875 346.78125 88.621094 324.3125 73.316406 280.003906 C 61.6875 246.300781 67.027344 217.242188 69.605469 204.074219 C 81.59375 143.042969 125.628906 108.40625 139.46875 97.871094 C 155.777344 85.414062 180.15625 66.824219 216.171875 62.675781 C 276.496094 55.765625 333.128906 93.574219 360.820312 139.300781 C 365.320312 146.761719 382.464844 176.585938 383 218.828125 C 383.101562 226.585938 383.027344 265.726562 358.113281 306.886719 C 349.761719 320.707031 326.332031 359.453125 279.308594 375.386719 C 249.390625 385.554688 223.363281 381.894531 206.011719 379.46875 C 191.914062 377.5 164.746094 373.386719 135.855469 355.03125 Z M 135.855469 355.03125 " fill-opacity="1" fill-rule="nonzero"/></g></g></g></g></g></g></g></g></g></g></g></g></g></g></g></g></g><g clip-path="url(#a3f5254f3e)"><g clip-path="url(#8480e80baa)"><g clip-path="url(#99a532660b)"><g clip-path="url(#2020e061fb)"><g clip-path="url(#781c936637)"><g clip-path="url(#944d9cdc66)"><g clip-path="url(#aee44b60df)"><g clip-path="url(#15174e4af2)"><g clip-path="url(#abb8fabbc6)"><g clip-path="url(#aace6d09d6)"><g clip-path="url(#6620c4ea24)"><g clip-path="url(#fb0fe41980)"><g clip-path="url(#3dcb8a8302)"><g clip-path="url(#8df363e761)"><g clip-path="url(#87f708e493)"><g clip-path="url(#bbdc816723)"><g clip-path="url(#7c1f6d2ddb)"><path fill="#000000" d="M 344.816406 305.898438 C 337.351562 317.671875 316.992188 348.71875 276.835938 362.574219 C 246.246094 373.101562 219.890625 368.246094 207.949219 365.894531 C 152.585938 354.988281 121.167969 315.042969 111.589844 302.488281 C 100.308594 287.671875 83.425781 265.570312 79.652344 232.882812 C 73.359375 178.179688 107.605469 126.816406 149.058594 101.753906 C 155.816406 97.683594 182.875 82.148438 221.1875 81.691406 C 228.203125 81.585938 263.703125 81.6875 301.046875 104.289062 C 313.585938 111.882812 348.730469 133.148438 363.207031 175.78125 C 372.433594 202.953125 369.128906 226.535156 366.945312 242.277344 C 365.164062 255.050781 361.46875 279.707031 344.816406 305.898438 Z M 344.816406 305.898438 " fill-opacity="1" fill-rule="nonzero"/></g></g></g></g></g></g></g></g></g></g></g></g></g></g></g></g></g><g clip-path="url(#11981c2261)"><g clip-path="url(#ee5b7f62a5)"><g clip-path="url(#4439140f63)"><g clip-path="url(#5f3bd0641b)"><g clip-path="url(#6b4d07bcc3)"><g clip-path="url(#72d3238612)"><g clip-path="url(#3ce2c0c7b2)"><g clip-path="url(#54570dacae)"><g clip-path="url(#f0aaa39005)"><g clip-path="url(#cc9d634780)"><g clip-path="url(#6b5d169333)"><g clip-path="url(#abdda6bba3)"><g clip-path="url(#127b7b54a7)"><g clip-path="url(#4aa51648ba)"><g clip-path="url(#ea05a7fb91)"><g clip-path="url(#39012c67a5)"><g clip-path="url(#49e88eadb1)"><path fill="#000000" d="M 252.257812 339.53125 C 241.007812 342.058594 210.933594 348.300781 179.316406 332.839844 C 155.253906 321.027344 142.644531 302.691406 137.027344 294.296875 C 110.976562 255.371094 115.929688 213.453125 117.679688 200.460938 C 119.714844 185.152344 122.761719 162.25 139.65625 140.871094 C 167.9375 105.054688 218.027344 95.058594 256.972656 104.710938 C 263.3125 106.285156 288.230469 113.058594 310.933594 135.324219 C 315.117188 139.398438 335.839844 160.304688 344.492188 195.503906 C 347.40625 207.351562 355.550781 240.484375 339.105469 274.019531 C 328.640625 295.34375 312.914062 307.273438 302.40625 315.222656 C 293.898438 321.675781 277.324219 333.941406 252.257812 339.53125 Z M 252.257812 339.53125 " fill-opacity="1" fill-rule="nonzero"/></g></g></g></g></g></g></g></g></g></g></g></g></g></g></g></g></g><g clip-path="url(#55eedad2ea)"><g clip-path="url(#ec2e5874d8)"><g clip-path="url(#d23cefe8d8)"><g clip-path="url(#f5a9bfbb66)"><g clip-path="url(#3531db618a)"><g clip-path="url(#cccea27afe)"><g clip-path="url(#1c1331243c)"><g clip-path="url(#39e85ddfc0)"><g clip-path="url(#b83c1287b6)"><g clip-path="url(#7b695f402c)"><g clip-path="url(#732c822214)"><g clip-path="url(#7e7bf21efc)"><g clip-path="url(#10a358ee03)"><g clip-path="url(#77907a5095)"><g clip-path="url(#3066f228e2)"><g clip-path="url(#ebb8b5555e)"><g clip-path="url(#670c9f0f74)"><path fill="#000000" d="M 174.707031 294.621094 C 167.210938 289.835938 147.386719 276.871094 138.402344 251.480469 C 131.574219 232.144531 134.53125 215.554688 135.957031 208.035156 C 142.601562 173.1875 167.800781 153.570312 175.730469 147.585938 C 185.066406 140.554688 199.007812 130.027344 219.738281 127.800781 C 254.417969 124.09375 287.179688 145.9375 303.265625 172.210938 C 305.898438 176.472656 315.878906 193.621094 316.378906 217.773438 C 316.460938 222.199219 316.582031 244.578125 302.40625 268.007812 C 297.671875 275.878906 284.320312 297.9375 257.355469 306.851562 C 240.183594 312.527344 225.183594 310.339844 215.1875 308.867188 C 207.058594 307.695312 191.402344 305.230469 174.707031 294.621094 Z M 174.707031 294.621094 " fill-opacity="1" fill-rule="nonzero"/></g></g></g></g></g></g></g></g></g></g></g></g></g></g></g></g></g><g clip-path="url(#f264ca2cd4)"><g clip-path="url(#fbc8ce8f40)"><g clip-path="url(#f54577de1a)"><g clip-path="url(#474f7c9708)"><g clip-path="url(#b8a01716a4)"><g clip-path="url(#be65ba9fa3)"><g clip-path="url(#571837e124)"><g clip-path="url(#817dea752b)"><g clip-path="url(#fa09ede72b)"><g clip-path="url(#0a6d85dd4a)"><g clip-path="url(#259ce1a9ee)"><g clip-path="url(#38e5071721)"><g clip-path="url(#f21a0233f1)"><g clip-path="url(#097570d8f4)"><g clip-path="url(#2d477b986e)"><g clip-path="url(#f50602ef9a)"><g clip-path="url(#a596ad2b3d)"><path fill="#000000" d="M 236.878906 268.96875 C 232.175781 269.996094 219.648438 272.609375 206.519531 266.351562 C 196.511719 261.578125 191.300781 254.097656 188.980469 250.683594 C 178.203125 234.8125 180.347656 217.6875 181.101562 212.371094 C 181.976562 206.117188 183.273438 196.757812 190.351562 187.988281 C 202.179688 173.308594 223.054688 169.144531 239.257812 173.015625 C 241.886719 173.652344 252.261719 176.375 261.671875 185.425781 C 263.378906 187.078125 271.996094 195.597656 275.527344 209.964844 C 276.699219 214.792969 280.054688 228.296875 273.136719 242.027344 C 268.753906 250.773438 262.179688 255.660156 257.796875 258.941406 C 254.253906 261.59375 247.320312 266.621094 236.878906 268.96875 Z M 236.878906 268.96875 " fill-opacity="1" fill-rule="nonzero"/></g></g></g></g></g></g></g></g></g></g></g></g></g></g></g></g></g><g clip-path="url(#e86597937c)"><g clip-path="url(#a6f5f39c91)"><g clip-path="url(#b2a91a5e87)"><g clip-path="url(#5fad59a0c0)"><g clip-path="url(#bcdcf7133a)"><g clip-path="url(#44367abe6f)"><g clip-path="url(#1129c3cf86)"><g clip-path="url(#e597511693)"><g clip-path="url(#423f050064)"><g clip-path="url(#b116d8593f)"><g clip-path="url(#bc9816c375)"><g clip-path="url(#503ad782c9)"><g clip-path="url(#986015e09f)"><g clip-path="url(#f7d7834615)"><g clip-path="url(#04177197a4)"><g clip-path="url(#2a418ca447)"><g clip-path="url(#2273c46926)"><path fill="#000000" d="M 204.820312 223.136719 C 204.347656 221.035156 203.175781 215.414062 206 209.488281 C 208.148438 204.976562 211.5 202.648438 213.066406 201.589844 C 220.191406 196.738281 227.917969 197.710938 230.316406 198.035156 C 233.128906 198.425781 237.347656 199.011719 241.28125 202.191406 C 247.894531 207.519531 249.765625 216.933594 248.019531 224.210938 C 247.738281 225.398438 246.496094 230.058594 242.417969 234.296875 C 241.679688 235.09375 237.851562 238.953125 231.371094 240.542969 C 229.203125 241.089844 223.128906 242.589844 216.945312 239.472656 C 213 237.507812 210.789062 234.535156 209.328125 232.5625 C 208.140625 230.960938 205.867188 227.847656 204.820312 223.136719 Z M 204.820312 223.136719 " fill-opacity="1" fill-rule="nonzero"/></g></g></g></g></g></g></g></g></g></g></g></g></g></g></g></g></g><g clip-path="url(#301f0bd502)"><g clip-path="url(#aa16c0847c)"><g clip-path="url(#6cc74b5981)"><g clip-path="url(#f1ea36f685)"><g clip-path="url(#0704842c44)"><g clip-path="url(#b5f4cfd0fc)"><g clip-path="url(#2df4b86067)"><g clip-path="url(#1a84cc8588)"><g clip-path="url(#fa0cd59c87)"><path fill="#000000" d="M 94.59375 43.453125 L 103.777344 -46.652344 L 216.125 -104.570312 L 117.769531 -183.957031 L 126.960938 -274.164062 L 296.109375 -134.378906 L 443.726562 -119.335938 L 436.078125 -44.300781 L 288.464844 -59.34375 Z M 94.59375 43.453125 " fill-opacity="1" fill-rule="nonzero"/></g></g></g></g></g></g></g></g></g><g clip-path="url(#53c35ddcfc)"><g clip-path="url(#8f40f40db2)"><g clip-path="url(#e790fd9edf)"><g clip-path="url(#d3202b929f)"><g clip-path="url(#ba89a57973)"><g clip-path="url(#b9444453ff)"><g clip-path="url(#4783d93903)"><g clip-path="url(#0a5fdcb91d)"><g clip-path="url(#0534cd2161)"><g clip-path="url(#ae5ab51555)"><g clip-path="url(#3389f8bc0a)"><path fill="#849bff" d="M 65.046875 272.957031 C 59.695312 257.484375 46.046875 216.074219 62.570312 169.078125 C 75.15625 133.296875 98.800781 112.664062 109.632812 103.421875 C 159.90625 60.570312 219.394531 60.957031 237.847656 61.371094 C 259.648438 61.824219 292.1875 62.523438 324.882812 82.964844 C 379.621094 117.230469 401.769531 186.257812 394.582031 242.660156 C 393.410156 251.867188 387.976562 288.054688 360.507812 323.574219 C 355.492188 330.058594 329.574219 362.589844 281.699219 380.316406 C 265.617188 386.28125 220.546875 402.960938 170.917969 385.0625 C 139.339844 373.679688 120.09375 353.382812 107.273438 339.835938 C 96.847656 328.832031 76.960938 307.410156 65.046875 272.957031 Z M 65.046875 272.957031 " fill-opacity="1" fill-rule="nonzero"/></g></g></g></g></g></g></g></g></g></g></g><g clip-path="url(#190996ef4d)"><g clip-path="url(#e08c45989f)"><g clip-path="url(#f805e146c4)"><g clip-path="url(#24bd5e7bec)"><g clip-path="url(#11a6a7dbf2)"><g clip-path="url(#71bcc6d26e)"><g clip-path="url(#e2a9eee896)"><g clip-path="url(#dd41c537bf)"><g clip-path="url(#54e12fca0a)"><g clip-path="url(#e8f6e3315a)"><g clip-path="url(#0b43cd7b8b)"><g clip-path="url(#953388c249)"><g clip-path="url(#92838271f6)"><g clip-path="url(#6a1f36ab08)"><g clip-path="url(#2907038cd9)"><g clip-path="url(#258e2f95d7)"><g clip-path="url(#ae67d7da1f)"><path fill="#ffffff" d="M 92.238281 200.808594 C 94.070312 187.667969 99.453125 152.75 128.746094 124.886719 C 151.035156 103.707031 175.75 97.503906 187.007812 94.816406 C 239.1875 82.390625 282.125 104.558594 295.34375 111.652344 C 310.953125 119.992188 334.257812 132.476562 350.402344 159.253906 C 377.402344 204.121094 367.988281 262.089844 342.011719 300.175781 C 337.765625 306.378906 320.496094 330.5 287.535156 346.03125 C 281.484375 348.886719 250.742188 362.828125 209.527344 358.003906 C 195.695312 356.390625 156.90625 351.867188 127.582031 320.664062 C 108.902344 300.824219 102.460938 279.089844 98.160156 264.605469 C 94.660156 252.835938 88.167969 230.042969 92.238281 200.808594 Z M 92.238281 200.808594 " fill-opacity="1" fill-rule="nonzero"/></g></g></g></g></g></g></g></g></g></g></g></g></g></g></g></g></g><g clip-path="url(#9660d07154)"><g clip-path="url(#2d492e0d35)"><g clip-path="url(#3af42bb0c8)"><g clip-path="url(#edadaf2d8c)"><g clip-path="url(#f3f3201823)"><g clip-path="url(#1eee5be4af)"><g clip-path="url(#3448f9ec99)"><g clip-path="url(#c7b32c4be4)"><g clip-path="url(#af2c4ef180)"><g clip-path="url(#1f525f08a2)"><g clip-path="url(#e9d7d5d028)"><g clip-path="url(#60c7392613)"><g clip-path="url(#fdf45079bb)"><g clip-path="url(#48f075a6a2)"><g clip-path="url(#5e402b17af)"><g clip-path="url(#d998ae71ca)"><g clip-path="url(#71198b886e)"><path fill="#147e93" d="M 205.550781 347.214844 C 193.640625 345.570312 161.992188 340.695312 136.753906 314.140625 C 117.550781 293.898438 111.929688 271.480469 109.503906 261.269531 C 98.261719 213.921875 118.367188 174.976562 124.792969 162.96875 C 132.382812 148.8125 143.691406 127.660156 167.992188 113.003906 C 208.671875 88.5 261.226562 97 295.726562 120.566406 C 301.335938 124.414062 323.207031 140.085938 337.269531 169.992188 C 339.863281 175.457031 352.484375 203.355469 348.105469 240.746094 C 346.628906 253.300781 342.515625 288.492188 314.234375 315.101562 C 296.214844 332.058594 276.527344 337.902344 263.390625 341.820312 C 252.730469 344.992188 232.058594 350.914062 205.550781 347.214844 Z M 205.550781 347.214844 " fill-opacity="1" fill-rule="nonzero"/></g></g></g></g></g></g></g></g></g></g></g></g></g></g></g></g></g><g clip-path="url(#4313d94ab0)"><g clip-path="url(#300cb12a3a)"><g clip-path="url(#dc801568bb)"><g clip-path="url(#3050ff6276)"><g clip-path="url(#92c39f63e0)"><g clip-path="url(#92f95d6456)"><g clip-path="url(#b647db2c94)"><g clip-path="url(#fd0cc1dec9)"><g clip-path="url(#c96dba76b2)"><g clip-path="url(#5d327088bc)"><g clip-path="url(#c6ccebe89f)"><g clip-path="url(#e6f0cf457d)"><g clip-path="url(#94a71124b8)"><g clip-path="url(#037fd0ab13)"><g clip-path="url(#e51daec0d3)"><g clip-path="url(#e8437a0739)"><g clip-path="url(#94bb53d692)"><path fill="#05445e" d="M 146.042969 286.609375 C 140.035156 278.6875 124.378906 257.316406 125.203125 226.972656 C 125.867188 203.867188 135.746094 187.410156 140.324219 180 C 161.550781 145.628906 196.21875 134.523438 207.039062 131.25 C 219.777344 127.371094 238.839844 121.570312 261.664062 127.179688 C 299.890625 136.5625 325.652344 172.292969 332.007812 206.308594 C 333.039062 211.847656 336.640625 233.824219 327.285156 259.605469 C 325.582031 264.347656 316.589844 288.089844 292.066406 307.46875 C 283.8125 313.996094 260.722656 332.238281 228.519531 331.328125 C 208.042969 330.742188 193.058594 322.671875 183.0625 317.269531 C 174.953125 312.898438 159.394531 304.28125 146.042969 286.609375 Z M 146.042969 286.609375 " fill-opacity="1" fill-rule="nonzero"/></g></g></g></g></g></g></g></g></g></g></g></g></g></g></g></g></g><g clip-path="url(#f814c7c3c6)"><g clip-path="url(#0c53ee427d)"><g clip-path="url(#1de5c3631b)"><g clip-path="url(#791d903731)"><g clip-path="url(#cd8c8fb24d)"><g clip-path="url(#d44eb1b40b)"><g clip-path="url(#b910148c5a)"><g clip-path="url(#80f320aa54)"><g clip-path="url(#c1ac613436)"><g clip-path="url(#6f92f8c6c5)"><g clip-path="url(#8fc073ba96)"><g clip-path="url(#1db81de61f)"><g clip-path="url(#75312c9fb0)"><g clip-path="url(#9a01a4757b)"><g clip-path="url(#4a3ceda3b7)"><g clip-path="url(#9f80f55863)"><g clip-path="url(#0bc5924a67)"><path fill="#ffffff" d="M 153.546875 209.683594 C 154.621094 202.089844 157.703125 181.898438 174.414062 165.761719 C 187.144531 153.488281 201.222656 149.875 207.632812 148.300781 C 237.359375 141.050781 261.765625 153.8125 269.300781 157.890625 C 278.15625 162.699219 291.402344 169.878906 300.566406 185.347656 C 315.882812 211.238281 310.460938 244.761719 295.59375 266.785156 C 293.191406 270.375 283.308594 284.34375 264.53125 293.375 C 261.085938 295.019531 243.570312 303.121094 220.113281 300.378906 C 212.242188 299.476562 190.15625 296.890625 173.515625 278.921875 C 162.914062 267.472656 159.269531 254.917969 156.84375 246.546875 C 154.859375 239.753906 151.191406 226.585938 153.546875 209.683594 Z M 153.546875 209.683594 " fill-opacity="1" fill-rule="nonzero"/></g></g></g></g></g></g></g></g></g></g></g></g></g></g></g></g></g><g clip-path="url(#af093746f6)"><g clip-path="url(#7b95f03428)"><g clip-path="url(#300cc6c7fb)"><g clip-path="url(#3e3d53927f)"><g clip-path="url(#2725252198)"><g clip-path="url(#f58520a8f7)"><g clip-path="url(#0f38c05919)"><g clip-path="url(#fef405e267)"><g clip-path="url(#f0b6bf7a72)"><g clip-path="url(#77d8ff3f7d)"><g clip-path="url(#5ae4fa4d04)"><g clip-path="url(#d64a31315c)"><g clip-path="url(#49d5423c44)"><g clip-path="url(#c43cea18f8)"><g clip-path="url(#0569ed2750)"><g clip-path="url(#19dd697a04)"><g clip-path="url(#eb30bc2561)"><path fill="#849bff" d="M 195.914062 249.300781 C 193.429688 245.972656 186.898438 237.078125 187.109375 224.539062 C 187.277344 214.976562 191.285156 208.210938 193.132812 205.171875 C 201.734375 191.035156 215.9375 186.59375 220.378906 185.28125 C 225.601562 183.730469 233.40625 181.398438 242.824219 183.816406 C 258.574219 187.847656 269.3125 202.742188 272.070312 216.839844 C 272.507812 219.132812 274.082031 228.25 270.347656 238.871094 C 269.660156 240.800781 266.058594 250.613281 256.046875 258.523438 C 252.679688 261.167969 243.277344 268.632812 230.03125 268.113281 C 221.597656 267.804688 215.414062 264.390625 211.269531 262.128906 C 207.921875 260.296875 201.496094 256.652344 195.914062 249.300781 Z M 195.914062 249.300781 " fill-opacity="1" fill-rule="nonzero"/></g></g></g></g></g></g></g></g></g></g></g></g></g></g></g></g></g><g clip-path="url(#94d9aae34e)"><g clip-path="url(#651f63184b)"><g clip-path="url(#aebc93883a)"><g clip-path="url(#1ac5ebeb66)"><g clip-path="url(#7d058e716f)"><g clip-path="url(#5d5fcfdebd)"><g clip-path="url(#cb047dac7b)"><g clip-path="url(#50dde0b5e3)"><g clip-path="url(#e79801ced0)"><g clip-path="url(#7ef151e5cf)"><g clip-path="url(#765f16b40a)"><g clip-path="url(#7a4ee4590a)"><g clip-path="url(#864a3413f5)"><g clip-path="url(#4b83e611a3)"><g clip-path="url(#94d230b005)"><g clip-path="url(#6a010219ba)"><g clip-path="url(#627c25b1fa)"><path fill="#ffffff" d="M 220.414062 207.746094 C 221.898438 206.621094 225.886719 203.691406 231.546875 203.789062 C 235.859375 203.859375 238.882812 205.660156 240.273438 206.507812 C 246.628906 210.367188 248.628906 216.777344 249.234375 218.773438 C 249.933594 221.121094 250.984375 224.644531 249.894531 228.867188 C 248.082031 235.960938 241.359375 240.800781 235.023438 242.03125 C 233.992188 242.234375 229.890625 242.929688 225.109375 241.242188 C 224.21875 240.949219 219.820312 239.324219 216.253906 234.808594 C 215.050781 233.300781 211.699219 229.074219 211.933594 223.105469 C 212.0625 219.304688 213.605469 216.507812 214.632812 214.65625 C 215.464844 213.148438 217.09375 210.253906 220.414062 207.746094 Z M 220.414062 207.746094 " fill-opacity="1" fill-rule="nonzero"/></g></g></g></g></g></g></g></g></g></g></g></g></g></g></g></g></g><g clip-path="url(#e068499807)"><g clip-path="url(#7c00d8987f)"><g clip-path="url(#d553986e51)"><g clip-path="url(#7d29495443)"><g clip-path="url(#c854102605)"><g clip-path="url(#eebd268edc)"><g clip-path="url(#fcfc597e84)"><g clip-path="url(#6970a4c8c9)"><g clip-path="url(#faeb92699d)"><path fill="#6f779d" d="M 321.996094 56.96875 L 395.988281 31.941406 L 481.628906 99.390625 L 508.746094 -6.195312 L 582.824219 -31.25 L 533.636719 151.496094 L 574.636719 272.71875 L 513.015625 293.558594 L 472.015625 172.335938 Z M 321.996094 56.96875 " fill-opacity="1" fill-rule="nonzero"/></g></g></g></g></g></g></g></g></g></svg>